<svg width="1110" height="183" xmlns="http://www.w3.org/2000/svg" xmlns:xlink="http://www.w3.org/1999/xlink" xml:space="preserve" overflow="hidden"><defs><clipPath id="clip0"><rect x="1667" y="1831" width="1110" height="183"/></clipPath></defs><g clip-path="url(#clip0)" transform="translate(-1667 -1831)"><path d="M1749.88 1914.37C1748.88 1914.37 1747.82 1914.39 1746.71 1914.44L1743.39 1929.24 1745.93 1929.24C1747.9 1929.24 1749.49 1929.03 1750.7 1928.63 1751.91 1928.22 1752.91 1927.59 1753.68 1926.73 1754.45 1925.88 1755.05 1924.87 1755.47 1923.69 1755.9 1922.52 1756.11 1921.24 1756.11 1919.84 1756.11 1917.95 1755.63 1916.56 1754.67 1915.69 1753.71 1914.81 1752.11 1914.37 1749.88 1914.37ZM1739.65 1912.22 1750.42 1912.22C1752.36 1912.22 1753.95 1912.37 1755.19 1912.67 1756.44 1912.97 1757.46 1913.44 1758.27 1914.06 1759.08 1914.69 1759.68 1915.48 1760.08 1916.44 1760.48 1917.4 1760.68 1918.52 1760.68 1919.79 1760.68 1922.23 1760.1 1924.34 1758.94 1926.13 1757.79 1927.93 1756.22 1929.24 1754.24 1930.09 1752.26 1930.94 1749.89 1931.36 1747.13 1931.36 1745.47 1931.36 1744.08 1931.33 1742.97 1931.26L1741.41 1938.44C1741.27 1939.11 1741.16 1939.62 1741.11 1939.98 1741.05 1940.34 1741 1940.72 1740.96 1941.14 1740.92 1941.55 1740.9 1941.92 1740.9 1942.25 1740.9 1942.75 1740.98 1943.15 1741.14 1943.43 1741.31 1943.72 1741.55 1943.92 1741.88 1944.05 1742.2 1944.19 1742.76 1944.28 1743.56 1944.35L1743.29 1945.54 1733.26 1945.54 1733.53 1944.35C1734.15 1944.25 1734.61 1944.09 1734.92 1943.87 1735.23 1943.65 1735.49 1943.35 1735.7 1942.96 1735.91 1942.57 1736.11 1942.09 1736.29 1941.53 1736.46 1940.97 1736.73 1939.88 1737.09 1938.27L1741.24 1919.47C1741.6 1917.84 1741.78 1916.56 1741.78 1915.61 1741.78 1914.81 1741.59 1914.26 1741.22 1913.95 1740.84 1913.64 1740.23 1913.46 1739.39 1913.42Z" fill-rule="evenodd"/><text fill="#000000" fill-opacity="0" font-family="Arial,Arial_MSFontService,sans-serif" font-size="33.3252" x="1733.26" y="1941.38">𝑃</text><path d="M1765.99 1937.39C1766.65 1937.39 1767.19 1937.53 1767.62 1937.82 1768.04 1938.11 1768.39 1938.53 1768.66 1939.09 1768.94 1939.64 1769.17 1940.32 1769.35 1941.14 1769.53 1941.95 1769.72 1942.88 1769.93 1943.93L1770.16 1943.93C1770.89 1942.98 1771.51 1942.15 1772.04 1941.45 1772.57 1940.75 1773.05 1940.16 1773.46 1939.68 1773.88 1939.2 1774.25 1938.81 1774.58 1938.51 1774.91 1938.21 1775.23 1937.97 1775.55 1937.81 1775.86 1937.65 1776.18 1937.54 1776.51 1937.48 1776.84 1937.42 1777.22 1937.39 1777.62 1937.39 1778.23 1937.39 1778.78 1937.5 1779.27 1937.71L1778.37 1941.27 1776.87 1941.27C1776.83 1940.75 1776.64 1940.5 1776.29 1940.5 1776.16 1940.5 1776.01 1940.52 1775.85 1940.57 1775.7 1940.62 1775.51 1940.71 1775.29 1940.86 1775.08 1941 1774.83 1941.2 1774.54 1941.46 1774.26 1941.72 1773.93 1942.06 1773.54 1942.47 1773.16 1942.89 1772.72 1943.4 1772.22 1944 1771.73 1944.6 1771.16 1945.31 1770.52 1946.13 1770.85 1947.79 1771.13 1949.12 1771.36 1950.12 1771.6 1951.12 1771.83 1951.89 1772.04 1952.42 1772.26 1952.95 1772.48 1953.3 1772.69 1953.46 1772.91 1953.62 1773.16 1953.7 1773.43 1953.7 1773.64 1953.7 1773.83 1953.68 1774 1953.63 1774.18 1953.58 1774.36 1953.48 1774.54 1953.31 1774.73 1953.15 1774.94 1952.92 1775.17 1952.61 1775.4 1952.3 1775.67 1951.9 1775.98 1951.39L1777.34 1952.27C1776.81 1953.07 1776.34 1953.72 1775.93 1954.23 1775.52 1954.73 1775.12 1955.13 1774.73 1955.42 1774.35 1955.71 1773.95 1955.9 1773.54 1956.01 1773.13 1956.11 1772.66 1956.16 1772.13 1956.16 1771.68 1956.16 1771.27 1956.1 1770.9 1955.97 1770.54 1955.84 1770.23 1955.61 1769.96 1955.27 1769.78 1955.07 1769.62 1954.79 1769.46 1954.45 1769.3 1954.11 1769.16 1953.74 1769.03 1953.34 1768.89 1952.94 1768.77 1952.53 1768.66 1952.1 1768.56 1951.68 1768.47 1951.27 1768.39 1950.9 1768.32 1950.53 1768.26 1950.19 1768.22 1949.9 1768.18 1949.6 1768.15 1949.38 1768.14 1949.24L1767.94 1949.24C1767.22 1950.2 1766.59 1951.04 1766.05 1951.76 1765.52 1952.48 1765.03 1953.09 1764.6 1953.6 1764.17 1954.11 1763.77 1954.54 1763.42 1954.87 1763.08 1955.2 1762.73 1955.46 1762.39 1955.65 1762.06 1955.85 1761.71 1955.98 1761.36 1956.05 1761 1956.12 1760.61 1956.16 1760.17 1956.16 1759.55 1956.16 1759.01 1956.05 1758.56 1955.83L1759.4 1952.31 1760.93 1952.31C1760.97 1952.84 1761.17 1953.11 1761.53 1953.11 1761.66 1953.09 1761.79 1953.07 1761.92 1953.03 1762.04 1953 1762.19 1952.92 1762.36 1952.81 1762.53 1952.69 1762.74 1952.51 1763 1952.27 1763.26 1952.02 1763.59 1951.68 1763.98 1951.24 1764.38 1950.8 1764.87 1950.25 1765.45 1949.58 1766.03 1948.92 1766.72 1948.1 1767.53 1947.13 1767.31 1946.11 1767.12 1945.23 1766.96 1944.49 1766.79 1943.74 1766.64 1943.1 1766.51 1942.56 1766.37 1942.03 1766.23 1941.59 1766.1 1941.25 1765.97 1940.92 1765.83 1940.65 1765.69 1940.45 1765.55 1940.25 1765.4 1940.11 1765.24 1940.03 1765.08 1939.94 1764.89 1939.89 1764.67 1939.88 1764.47 1939.88 1764.28 1939.91 1764.1 1939.98 1763.93 1940.05 1763.75 1940.16 1763.56 1940.33 1763.37 1940.5 1763.17 1940.74 1762.95 1941.04 1762.72 1941.34 1762.47 1941.73 1762.18 1942.21L1760.79 1941.31C1761.28 1940.57 1761.73 1939.95 1762.12 1939.45 1762.52 1938.94 1762.91 1938.54 1763.3 1938.24 1763.68 1937.94 1764.09 1937.72 1764.52 1937.59 1764.95 1937.45 1765.44 1937.39 1765.99 1937.39Z" fill-rule="evenodd"/><text fill="#000000" fill-opacity="0" font-family="Arial,Arial_MSFontService,sans-serif" font-size="18.771" x="1758.56" y="1953.81">𝑥</text><path d="M1783.15 1951.64 1786.31 1951.64C1786.48 1952.49 1786.56 1953.32 1786.56 1954.14 1786.56 1954.98 1786.42 1955.75 1786.13 1956.45 1785.84 1957.15 1785.38 1957.84 1784.74 1958.53 1784.11 1959.23 1783.24 1959.99 1782.13 1960.82L1781.16 1959.72C1781.77 1959.14 1782.22 1958.62 1782.5 1958.16 1782.77 1957.69 1782.97 1957.16 1783.09 1956.57 1783.21 1955.98 1783.27 1955.24 1783.27 1954.35 1783.27 1953.44 1783.23 1952.53 1783.15 1951.64Z" fill-rule="evenodd"/><text fill="#000000" fill-opacity="0" font-family="Arial,Arial_MSFontService,sans-serif" font-size="9.17773" x="1781.16" y="1959.67">,</text><path d="M1800.77 1939.18C1800.09 1939.18 1799.46 1939.33 1798.87 1939.63 1798.28 1939.93 1797.74 1940.34 1797.24 1940.87 1796.75 1941.4 1796.31 1942.03 1795.91 1942.75 1795.52 1943.48 1795.19 1944.25 1794.92 1945.08 1794.65 1945.92 1794.44 1946.78 1794.3 1947.69 1794.15 1948.59 1794.08 1949.49 1794.08 1950.4 1794.08 1951.78 1794.37 1952.8 1794.94 1953.46 1795.51 1954.11 1796.38 1954.44 1797.55 1954.44 1798.2 1954.44 1798.81 1954.28 1799.39 1953.96 1799.97 1953.64 1800.5 1953.21 1800.98 1952.67 1801.46 1952.13 1801.89 1951.49 1802.27 1950.77 1802.65 1950.04 1802.98 1949.26 1803.24 1948.43 1803.51 1947.6 1803.71 1946.74 1803.85 1945.85 1803.98 1944.97 1804.05 1944.1 1804.05 1943.26 1804.05 1941.92 1803.79 1940.91 1803.26 1940.22 1802.73 1939.52 1801.9 1939.18 1800.77 1939.18ZM1816.84 1937.39C1817.71 1937.39 1818.4 1937.68 1818.92 1938.26 1819.43 1938.85 1819.69 1939.63 1819.69 1940.6 1819.69 1941.13 1819.65 1941.72 1819.55 1942.37 1819.45 1943.02 1819.29 1943.75 1819.06 1944.56 1818.6 1946.21 1818.24 1947.66 1817.98 1948.9 1817.71 1950.14 1817.58 1951.05 1817.58 1951.62 1817.58 1952.35 1817.72 1952.89 1818 1953.24 1818.29 1953.6 1818.74 1953.77 1819.37 1953.77 1819.93 1953.77 1820.54 1953.56 1821.18 1953.14 1821.83 1952.72 1822.45 1952.18 1823.04 1951.51 1823.63 1950.84 1824.15 1950.09 1824.62 1949.27 1825.08 1948.44 1825.42 1947.63 1825.64 1946.82L1827.62 1937.77 1831.18 1937.77 1828.4 1949.56C1828.26 1950.18 1828.15 1950.73 1828.09 1951.21 1828.03 1951.69 1828 1952.1 1828 1952.44 1828 1952.89 1828.09 1953.23 1828.26 1953.43 1828.43 1953.64 1828.7 1953.74 1829.07 1953.74 1829.3 1953.74 1829.52 1953.7 1829.74 1953.61 1829.96 1953.53 1830.19 1953.39 1830.43 1953.21 1830.68 1953.03 1830.95 1952.8 1831.24 1952.52 1831.53 1952.24 1831.85 1951.9 1832.21 1951.5L1833.46 1952.69C1832.86 1953.3 1832.3 1953.83 1831.8 1954.27 1831.29 1954.71 1830.81 1955.07 1830.35 1955.35 1829.9 1955.64 1829.44 1955.84 1828.99 1955.97 1828.54 1956.1 1828.07 1956.16 1827.59 1956.16 1826.72 1956.16 1826.04 1955.88 1825.56 1955.32 1825.07 1954.76 1824.82 1953.99 1824.82 1953.02 1824.82 1952.76 1824.84 1952.51 1824.88 1952.25 1824.91 1951.99 1824.98 1951.74 1825.08 1951.5L1824.86 1951.43C1823.67 1953 1822.51 1954.19 1821.38 1954.98 1820.26 1955.76 1819.09 1956.16 1817.87 1956.16 1816.59 1956.16 1815.63 1955.82 1814.99 1955.15 1814.34 1954.47 1814.02 1953.5 1814.02 1952.24 1814.02 1951.91 1814.08 1951.46 1814.19 1950.88 1814.31 1950.31 1814.45 1949.66 1814.62 1948.95 1814.79 1948.24 1814.97 1947.5 1815.16 1946.72 1815.35 1945.94 1815.53 1945.2 1815.7 1944.48 1815.87 1943.76 1816.01 1943.11 1816.13 1942.53 1816.24 1941.94 1816.3 1941.49 1816.3 1941.16 1816.3 1940.28 1815.94 1939.84 1815.21 1939.84 1814.98 1939.84 1814.76 1939.89 1814.54 1939.98 1814.33 1940.07 1814.1 1940.21 1813.85 1940.39 1813.6 1940.57 1813.33 1940.8 1813.05 1941.07 1812.76 1941.35 1812.43 1941.68 1812.07 1942.05L1810.84 1940.87C1811.49 1940.22 1812.07 1939.68 1812.58 1939.23 1813.1 1938.78 1813.58 1938.43 1814.04 1938.16 1814.5 1937.88 1814.95 1937.69 1815.39 1937.57 1815.84 1937.45 1816.32 1937.39 1816.84 1937.39ZM1801.11 1937.39C1802.19 1937.39 1803.14 1937.56 1803.95 1937.91 1804.77 1938.26 1805.44 1938.73 1805.99 1939.33 1806.53 1939.93 1806.93 1940.63 1807.21 1941.43 1807.48 1942.24 1807.61 1943.1 1807.61 1944.02 1807.61 1945.85 1807.34 1947.51 1806.8 1949 1806.26 1950.48 1805.51 1951.76 1804.55 1952.83 1803.59 1953.89 1802.47 1954.71 1801.17 1955.29 1799.88 1955.87 1798.47 1956.16 1796.95 1956.16 1795.95 1956.16 1795.06 1956.01 1794.26 1955.71 1793.47 1955.41 1792.79 1954.97 1792.24 1954.41 1791.68 1953.84 1791.26 1953.16 1790.96 1952.36 1790.67 1951.55 1790.52 1950.65 1790.52 1949.64 1790.52 1947.93 1790.79 1946.33 1791.33 1944.84 1791.86 1943.35 1792.6 1942.06 1793.55 1940.96 1794.49 1939.85 1795.61 1938.98 1796.9 1938.35 1798.19 1937.71 1799.59 1937.39 1801.11 1937.39ZM1841.94 1933.18 1844.76 1933.18 1843.73 1937.77 1849.87 1937.77 1849.46 1939.77 1843.33 1939.77 1841.49 1947.34C1841.37 1947.85 1841.27 1948.3 1841.19 1948.71 1841.11 1949.11 1841.05 1949.47 1841 1949.8 1840.95 1950.12 1840.92 1950.42 1840.9 1950.68 1840.88 1950.95 1840.88 1951.2 1840.88 1951.43 1840.88 1952.15 1841.03 1952.71 1841.33 1953.12 1841.63 1953.53 1842.12 1953.74 1842.81 1953.74 1843.39 1953.74 1844 1953.52 1844.65 1953.1 1845.3 1952.67 1846.04 1952 1846.87 1951.08L1848.12 1952.35C1847.51 1953.03 1846.92 1953.62 1846.37 1954.1 1845.81 1954.58 1845.27 1954.98 1844.74 1955.28 1844.21 1955.59 1843.69 1955.81 1843.17 1955.95 1842.65 1956.09 1842.12 1956.16 1841.58 1956.16 1840.15 1956.16 1839.08 1955.82 1838.37 1955.15 1837.67 1954.47 1837.32 1953.48 1837.32 1952.17 1837.32 1951.72 1837.35 1951.23 1837.42 1950.69 1837.48 1950.16 1837.58 1949.64 1837.7 1949.13L1839.85 1939.77 1836.74 1939.77 1837.1 1938.38C1837.82 1938.38 1838.39 1938.31 1838.79 1938.17 1839.19 1938.04 1839.53 1937.85 1839.81 1937.6 1839.99 1937.44 1840.16 1937.23 1840.33 1936.98 1840.5 1936.73 1840.67 1936.44 1840.84 1936.09 1841.01 1935.74 1841.18 1935.33 1841.35 1934.85 1841.53 1934.37 1841.72 1933.82 1841.94 1933.18Z" fill-rule="evenodd"/><text fill="#000000" fill-opacity="0" font-family="Arial,Arial_MSFontService,sans-serif" font-size="22.9805" x="1790.52" y="1953.29">𝑜𝑢𝑡</text><path d="M1870.76 1934.7 1900.84 1934.7 1900.84 1937.95 1870.76 1937.95ZM1870.76 1924.57 1900.84 1924.57 1900.84 1927.82 1870.76 1927.82Z" fill-rule="evenodd"/><text fill="#000000" fill-opacity="0" font-family="Arial,Arial_MSFontService,sans-serif" font-size="13.3789" x="1870.76" y="1936.28">=</text><path d="M1936.95 1914.37C1935.94 1914.37 1934.89 1914.39 1933.78 1914.44L1930.46 1929.24 1933 1929.24C1934.97 1929.24 1936.56 1929.03 1937.77 1928.63 1938.98 1928.22 1939.98 1927.59 1940.75 1926.73 1941.52 1925.88 1942.12 1924.87 1942.54 1923.69 1942.97 1922.52 1943.18 1921.24 1943.18 1919.84 1943.18 1917.95 1942.7 1916.56 1941.74 1915.69 1940.78 1914.81 1939.18 1914.37 1936.95 1914.37ZM1926.72 1912.22 1937.49 1912.22C1939.43 1912.22 1941.02 1912.37 1942.26 1912.67 1943.51 1912.97 1944.53 1913.44 1945.34 1914.06 1946.14 1914.69 1946.75 1915.48 1947.15 1916.44 1947.54 1917.4 1947.74 1918.52 1947.74 1919.79 1947.74 1922.23 1947.17 1924.34 1946.01 1926.13 1944.85 1927.93 1943.29 1929.24 1941.31 1930.09 1939.33 1930.94 1936.96 1931.36 1934.19 1931.36 1932.53 1931.36 1931.15 1931.33 1930.04 1931.26L1928.48 1938.44C1928.33 1939.11 1928.23 1939.62 1928.18 1939.98 1928.12 1940.34 1928.07 1940.72 1928.03 1941.14 1927.99 1941.55 1927.97 1941.92 1927.97 1942.25 1927.97 1942.75 1928.05 1943.15 1928.21 1943.43 1928.38 1943.72 1928.62 1943.92 1928.95 1944.05 1929.27 1944.19 1929.83 1944.28 1930.63 1944.35L1930.36 1945.54 1920.33 1945.54 1920.6 1944.35C1921.21 1944.25 1921.68 1944.09 1921.99 1943.87 1922.3 1943.65 1922.56 1943.35 1922.77 1942.96 1922.98 1942.57 1923.18 1942.09 1923.35 1941.53 1923.53 1940.97 1923.8 1939.88 1924.16 1938.27L1928.31 1919.47C1928.67 1917.84 1928.85 1916.56 1928.85 1915.61 1928.85 1914.81 1928.66 1914.26 1928.29 1913.95 1927.91 1913.64 1927.3 1913.46 1926.45 1913.42Z" fill-rule="evenodd"/><text fill="#000000" fill-opacity="0" font-family="Arial,Arial_MSFontService,sans-serif" font-size="33.3252" x="1920.33" y="1941.38">𝑃</text><path d="M1953.06 1937.39C1953.72 1937.39 1954.26 1937.53 1954.68 1937.82 1955.11 1938.11 1955.46 1938.53 1955.73 1939.09 1956.01 1939.64 1956.24 1940.32 1956.42 1941.14 1956.6 1941.95 1956.79 1942.88 1957 1943.93L1957.23 1943.93C1957.95 1942.98 1958.58 1942.15 1959.11 1941.45 1959.64 1940.75 1960.11 1940.16 1960.53 1939.68 1960.94 1939.2 1961.32 1938.81 1961.65 1938.51 1961.98 1938.21 1962.3 1937.97 1962.62 1937.81 1962.93 1937.65 1963.25 1937.54 1963.58 1937.48 1963.91 1937.42 1964.28 1937.39 1964.69 1937.39 1965.3 1937.39 1965.84 1937.5 1966.34 1937.71L1965.43 1941.27 1963.93 1941.27C1963.9 1940.75 1963.71 1940.5 1963.36 1940.5 1963.22 1940.5 1963.08 1940.52 1962.92 1940.57 1962.77 1940.62 1962.58 1940.71 1962.36 1940.86 1962.15 1941 1961.9 1941.2 1961.61 1941.46 1961.33 1941.72 1961 1942.06 1960.61 1942.47 1960.23 1942.89 1959.79 1943.4 1959.29 1944 1958.8 1944.6 1958.23 1945.31 1957.59 1946.13 1957.92 1947.79 1958.2 1949.12 1958.43 1950.12 1958.67 1951.12 1958.89 1951.89 1959.11 1952.42 1959.33 1952.95 1959.54 1953.3 1959.76 1953.46 1959.98 1953.62 1960.23 1953.7 1960.5 1953.7 1960.71 1953.7 1960.9 1953.68 1961.07 1953.63 1961.25 1953.58 1961.43 1953.48 1961.61 1953.31 1961.8 1953.15 1962.01 1952.92 1962.24 1952.61 1962.47 1952.3 1962.74 1951.9 1963.05 1951.39L1964.4 1952.27C1963.87 1953.07 1963.4 1953.72 1963 1954.23 1962.59 1954.73 1962.19 1955.13 1961.8 1955.42 1961.42 1955.71 1961.02 1955.9 1960.61 1956.01 1960.2 1956.11 1959.73 1956.16 1959.2 1956.16 1958.74 1956.16 1958.33 1956.1 1957.97 1955.97 1957.61 1955.84 1957.3 1955.61 1957.03 1955.27 1956.85 1955.07 1956.68 1954.79 1956.53 1954.45 1956.37 1954.11 1956.23 1953.74 1956.09 1953.34 1955.96 1952.94 1955.84 1952.53 1955.73 1952.1 1955.62 1951.68 1955.53 1951.27 1955.46 1950.9 1955.39 1950.53 1955.33 1950.19 1955.29 1949.9 1955.25 1949.6 1955.22 1949.38 1955.21 1949.24L1955.01 1949.24C1954.29 1950.2 1953.66 1951.04 1953.12 1951.76 1952.59 1952.48 1952.1 1953.09 1951.67 1953.6 1951.23 1954.11 1950.84 1954.54 1950.49 1954.87 1950.14 1955.2 1949.8 1955.46 1949.46 1955.65 1949.13 1955.85 1948.78 1955.98 1948.42 1956.05 1948.07 1956.12 1947.68 1956.16 1947.24 1956.16 1946.62 1956.16 1946.08 1956.05 1945.63 1955.83L1946.46 1952.31 1948 1952.31C1948.04 1952.84 1948.24 1953.11 1948.6 1953.11 1948.73 1953.09 1948.86 1953.07 1948.98 1953.03 1949.11 1953 1949.26 1952.92 1949.43 1952.81 1949.6 1952.69 1949.81 1952.51 1950.07 1952.27 1950.33 1952.02 1950.66 1951.68 1951.05 1951.24 1951.45 1950.8 1951.94 1950.25 1952.52 1949.58 1953.09 1948.92 1953.79 1948.1 1954.59 1947.13 1954.38 1946.11 1954.19 1945.23 1954.03 1944.49 1953.86 1943.74 1953.71 1943.1 1953.57 1942.56 1953.44 1942.03 1953.3 1941.59 1953.17 1941.25 1953.03 1940.92 1952.9 1940.65 1952.76 1940.45 1952.62 1940.25 1952.47 1940.11 1952.31 1940.03 1952.15 1939.94 1951.96 1939.89 1951.74 1939.88 1951.54 1939.88 1951.35 1939.91 1951.17 1939.98 1951 1940.05 1950.82 1940.16 1950.63 1940.33 1950.44 1940.5 1950.24 1940.74 1950.01 1941.04 1949.79 1941.34 1949.54 1941.73 1949.25 1942.21L1947.86 1941.31C1948.35 1940.57 1948.8 1939.95 1949.19 1939.45 1949.59 1938.94 1949.98 1938.54 1950.37 1938.24 1950.75 1937.94 1951.16 1937.72 1951.59 1937.59 1952.01 1937.45 1952.5 1937.39 1953.06 1937.39Z" fill-rule="evenodd"/><text fill="#000000" fill-opacity="0" font-family="Arial,Arial_MSFontService,sans-serif" font-size="18.771" x="1945.63" y="1953.81">𝑥</text><path d="M1970.21 1951.64 1973.38 1951.64C1973.54 1952.49 1973.63 1953.32 1973.63 1954.14 1973.63 1954.98 1973.48 1955.75 1973.2 1956.45 1972.91 1957.15 1972.45 1957.84 1971.81 1958.53 1971.18 1959.23 1970.31 1959.99 1969.2 1960.82L1968.23 1959.72C1968.84 1959.14 1969.29 1958.62 1969.56 1958.16 1969.84 1957.69 1970.04 1957.16 1970.16 1956.57 1970.28 1955.98 1970.34 1955.24 1970.34 1954.35 1970.34 1953.44 1970.3 1952.53 1970.21 1951.64Z" fill-rule="evenodd"/><text fill="#000000" fill-opacity="0" font-family="Arial,Arial_MSFontService,sans-serif" font-size="9.17773" x="1968.23" y="1959.67">,</text><path d="M1983.91 1937.57 1984.8 1937.57 1982.12 1949.6C1981.96 1950.31 1981.84 1950.88 1981.77 1951.3 1981.71 1951.72 1981.67 1952.1 1981.67 1952.44 1981.67 1952.89 1981.77 1953.23 1981.95 1953.43 1982.14 1953.64 1982.42 1953.74 1982.79 1953.74 1983.01 1953.74 1983.23 1953.7 1983.44 1953.61 1983.66 1953.53 1983.89 1953.39 1984.14 1953.21 1984.39 1953.03 1984.66 1952.8 1984.95 1952.52 1985.25 1952.24 1985.58 1951.9 1985.94 1951.5L1987.17 1952.69C1986.54 1953.33 1985.97 1953.87 1985.46 1954.31 1984.95 1954.75 1984.46 1955.1 1984 1955.38 1983.55 1955.66 1983.1 1955.86 1982.66 1955.98 1982.22 1956.1 1981.75 1956.16 1981.26 1956.16 1980.8 1956.16 1980.39 1956.07 1980.02 1955.91 1979.65 1955.74 1979.34 1955.51 1979.07 1955.21 1978.81 1954.92 1978.6 1954.56 1978.46 1954.15 1978.31 1953.74 1978.24 1953.29 1978.24 1952.8 1978.24 1952.4 1978.29 1951.91 1978.39 1951.32 1978.48 1950.73 1978.6 1950.09 1978.76 1949.39 1978.91 1948.7 1979.07 1947.97 1979.25 1947.22 1979.43 1946.46 1979.61 1945.7 1979.79 1944.96 1979.96 1944.21 1980.12 1943.49 1980.26 1942.8 1980.39 1942.11 1980.49 1941.48 1980.55 1940.91 1980.58 1940.81 1980.59 1940.72 1980.59 1940.63 1980.59 1940.54 1980.59 1940.46 1980.59 1940.39 1980.57 1939.92 1980.4 1939.57 1980.09 1939.36 1979.79 1939.14 1979.24 1939.02 1978.46 1939L1978.67 1937.77ZM1994.82 1937.39C1995.71 1937.39 1996.4 1937.68 1996.89 1938.26 1997.37 1938.85 1997.62 1939.62 1997.62 1940.57 1997.62 1940.81 1997.6 1941.06 1997.55 1941.33 1997.51 1941.59 1997.44 1941.84 1997.33 1942.09L1997.58 1942.18C1998.75 1940.57 1999.9 1939.38 2001.04 1938.58 2002.18 1937.79 2003.36 1937.39 2004.57 1937.39 2005.85 1937.39 2006.8 1937.73 2007.44 1938.42 2008.07 1939.1 2008.39 1940.07 2008.39 1941.31 2008.39 1941.68 2008.33 1942.2 2008.22 1942.86 2008.11 1943.52 2007.98 1944.25 2007.81 1945.03 2007.64 1945.81 2007.46 1946.62 2007.27 1947.44 2007.07 1948.27 2006.89 1949.03 2006.72 1949.73 2006.55 1950.43 2006.42 1951.02 2006.31 1951.52 2006.2 1952.01 2006.15 1952.32 2006.15 1952.44 2006.15 1952.89 2006.23 1953.23 2006.4 1953.43 2006.57 1953.64 2006.84 1953.74 2007.21 1953.74 2007.44 1953.74 2007.67 1953.7 2007.89 1953.61 2008.11 1953.53 2008.34 1953.39 2008.58 1953.21 2008.83 1953.03 2009.09 1952.8 2009.38 1952.52 2009.67 1952.24 2009.99 1951.9 2010.35 1951.5L2011.6 1952.69C2011.01 1953.29 2010.47 1953.81 2009.98 1954.24 2009.48 1954.68 2009 1955.04 2008.54 1955.32 2008.08 1955.6 2007.61 1955.81 2007.16 1955.95 2006.7 1956.09 2006.21 1956.16 2005.69 1956.16 2005.26 1956.16 2004.86 1956.07 2004.49 1955.91 2004.12 1955.74 2003.81 1955.51 2003.54 1955.21 2003.28 1954.92 2003.07 1954.57 2002.93 1954.16 2002.79 1953.76 2002.71 1953.32 2002.71 1952.83 2002.71 1952.35 2002.76 1951.79 2002.87 1951.15 2002.97 1950.5 2003.12 1949.79 2003.33 1949.02 2003.54 1948.24 2003.75 1947.49 2003.93 1946.77 2004.12 1946.06 2004.28 1945.39 2004.42 1944.79 2004.56 1944.18 2004.67 1943.64 2004.75 1943.16 2004.82 1942.68 2004.86 1942.29 2004.86 1941.98 2004.86 1941.23 2004.72 1940.68 2004.44 1940.33 2004.16 1939.98 2003.7 1939.81 2003.07 1939.81 2002.71 1939.81 2002.32 1939.9 2001.91 1940.09 2001.49 1940.28 2001.07 1940.53 2000.65 1940.87 2000.23 1941.2 1999.82 1941.59 1999.42 1942.04 1999.01 1942.49 1998.64 1942.97 1998.3 1943.49 1997.97 1944 1997.67 1944.53 1997.41 1945.09 1997.15 1945.65 1996.96 1946.21 1996.84 1946.76L1994.82 1955.83 1991.28 1955.83 1993.99 1944.05C1994.14 1943.43 1994.26 1942.87 1994.33 1942.37 1994.4 1941.88 1994.44 1941.48 1994.44 1941.16 1994.44 1940.28 1994.08 1939.84 1993.37 1939.84 1993.16 1939.84 1992.94 1939.89 1992.71 1939.98 1992.49 1940.07 1992.26 1940.21 1992.01 1940.39 1991.76 1940.57 1991.49 1940.8 1991.2 1941.07 1990.92 1941.35 1990.59 1941.68 1990.23 1942.05L1988.98 1940.87C1989.58 1940.26 1990.14 1939.73 1990.64 1939.29 1991.14 1938.85 1991.61 1938.49 1992.06 1938.21 1992.51 1937.93 1992.96 1937.72 1993.41 1937.59 1993.85 1937.45 1994.32 1937.39 1994.82 1937.39ZM1982.87 1930.29 1986.48 1930.29 1985.59 1934.17 1982.02 1934.17Z" fill-rule="evenodd"/><text fill="#000000" fill-opacity="0" font-family="Arial,Arial_MSFontService,sans-serif" font-size="25.8711" x="1978.24" y="1952.92">𝑖𝑛</text><path d="M2030.03 1929.63 2060.11 1929.63 2060.11 1932.87 2030.03 1932.87Z" fill-rule="evenodd"/><text fill="#000000" fill-opacity="0" font-family="Arial,Arial_MSFontService,sans-serif" font-size="3.24707" x="2030.03" y="1932.47">−</text><path d="M2091.06 1923.72C2089.38 1923.72 2087.88 1924.39 2086.54 1925.74 2085.21 1927.1 2084.17 1928.91 2083.42 1931.18 2082.67 1933.45 2082.29 1935.71 2082.29 1937.98 2082.29 1939.67 2082.53 1940.93 2082.99 1941.77 2083.45 1942.61 2084.23 1943.03 2085.32 1943.03 2086.4 1943.03 2087.45 1942.57 2088.48 1941.64 2089.52 1940.71 2090.58 1939.39 2091.68 1937.67 2092.78 1935.95 2093.56 1933.97 2094.01 1931.73L2094.23 1930.68C2094.38 1930.01 2094.48 1929.43 2094.53 1928.94 2094.58 1928.45 2094.6 1927.93 2094.6 1927.36 2094.6 1926.1 2094.33 1925.18 2093.79 1924.6 2093.26 1924.01 2092.35 1923.72 2091.06 1923.72ZM2090.57 1921.79C2091.63 1921.79 2092.62 1921.91 2093.54 1922.14 2094.46 1922.38 2095.41 1922.8 2096.38 1923.4L2098.63 1921.79 2100.19 1922.18 2096.6 1937.66C2096.24 1939.2 2096.06 1940.41 2096.06 1941.27 2096.06 1941.92 2096.17 1942.39 2096.38 1942.69 2096.59 1942.98 2096.93 1943.13 2097.38 1943.13 2097.87 1943.13 2098.39 1942.93 2098.95 1942.53 2099.5 1942.13 2100.28 1941.37 2101.29 1940.25L2102.68 1941.61C2101.22 1943.18 2099.97 1944.29 2098.93 1944.95 2097.9 1945.61 2096.78 1945.93 2095.58 1945.93 2094.57 1945.93 2093.76 1945.6 2093.16 1944.93 2092.56 1944.27 2092.26 1943.38 2092.26 1942.27 2092.26 1941.38 2092.44 1940.43 2092.82 1939.42L2092.5 1939.32C2090.94 1941.6 2089.46 1943.27 2088.06 1944.32 2086.66 1945.38 2085.18 1945.91 2083.61 1945.91 2081.82 1945.91 2080.44 1945.23 2079.45 1943.88 2078.47 1942.53 2077.97 1940.64 2077.97 1938.2 2077.97 1935.4 2078.52 1932.71 2079.62 1930.13 2080.72 1927.55 2082.23 1925.51 2084.15 1924.02 2086.07 1922.53 2088.21 1921.79 2090.57 1921.79Z" fill-rule="evenodd"/><text fill="#000000" fill-opacity="0" font-family="Arial,Arial_MSFontService,sans-serif" font-size="24.1455" x="2077.97" y="1942.92">𝑎</text><path d="M2278.8 1867.52C2285.49 1873.24 2290.8 1881.79 2294.73 1893.15 2298.67 1904.51 2300.63 1917.19 2300.63 1931.19 2300.63 1944.97 2298.67 1957.63 2294.73 1969.16 2290.8 1980.69 2285.49 1989.31 2278.8 1995.01L2277.66 1993.2C2283.44 1987.32 2287.89 1978.82 2291.01 1967.69 2294.14 1956.55 2295.7 1944.4 2295.7 1931.21 2295.7 1917.72 2294.13 1905.5 2290.99 1894.57 2287.85 1883.63 2283.4 1875.22 2277.66 1869.35ZM2139.06 1867.52 2140.21 1869.35C2134.44 1875.22 2130 1883.63 2126.86 1894.57 2123.73 1905.5 2122.16 1917.72 2122.16 1931.21 2122.16 1944.4 2123.73 1956.55 2126.85 1967.69 2129.98 1978.82 2134.43 1987.32 2140.21 1993.2L2139.06 1995.01C2132.37 1989.31 2127.06 1980.69 2123.13 1969.16 2119.2 1957.63 2117.23 1944.97 2117.23 1931.19 2117.23 1917.19 2119.2 1904.51 2123.13 1893.15 2127.06 1881.79 2132.37 1873.24 2139.06 1867.52Z" fill="#836967" fill-rule="evenodd"/><path d="M2210.69 1876.21C2209.68 1876.21 2208.63 1876.24 2207.52 1876.28L2204.2 1891.08 2206.74 1891.08C2208.71 1891.08 2210.3 1890.88 2211.51 1890.47 2212.72 1890.06 2213.72 1889.43 2214.49 1888.58 2215.26 1887.72 2215.86 1886.71 2216.28 1885.54 2216.71 1884.37 2216.92 1883.08 2216.92 1881.68 2216.92 1879.79 2216.44 1878.41 2215.48 1877.53 2214.52 1876.65 2212.92 1876.21 2210.69 1876.21ZM2200.46 1874.06 2211.23 1874.06C2213.17 1874.06 2214.76 1874.21 2216 1874.51 2217.25 1874.82 2218.27 1875.28 2219.08 1875.91 2219.88 1876.53 2220.49 1877.33 2220.89 1878.29 2221.28 1879.25 2221.48 1880.36 2221.48 1881.63 2221.48 1884.07 2220.91 1886.19 2219.75 1887.98 2218.59 1889.77 2217.03 1891.09 2215.05 1891.93 2213.07 1892.78 2210.7 1893.2 2207.93 1893.2 2206.27 1893.2 2204.89 1893.17 2203.78 1893.11L2202.22 1900.28C2202.07 1900.95 2201.97 1901.46 2201.92 1901.82 2201.86 1902.18 2201.81 1902.57 2201.77 1902.98 2201.73 1903.4 2201.71 1903.77 2201.71 1904.09 2201.71 1904.6 2201.79 1904.99 2201.95 1905.28 2202.11 1905.56 2202.36 1905.77 2202.68 1905.9 2203.01 1906.03 2203.57 1906.13 2204.37 1906.19L2204.1 1907.39 2194.07 1907.39 2194.33 1906.19C2194.95 1906.09 2195.42 1905.94 2195.73 1905.72 2196.04 1905.5 2196.3 1905.19 2196.51 1904.8 2196.72 1904.41 2196.91 1903.93 2197.09 1903.37 2197.27 1902.81 2197.54 1901.72 2197.9 1900.11L2202.05 1881.31C2202.41 1879.69 2202.59 1878.4 2202.59 1877.46 2202.59 1876.66 2202.4 1876.11 2202.03 1875.8 2201.65 1875.49 2201.04 1875.31 2200.19 1875.26Z" fill-rule="evenodd"/><text fill="#000000" fill-opacity="0" font-family="Arial,Arial_MSFontService,sans-serif" font-size="33.3252" x="2194.07" y="1903.22">𝑃</text><path d="M2160.07 1948.1C2159.06 1948.1 2158 1948.12 2156.9 1948.17L2153.58 1962.97 2156.11 1962.97C2158.08 1962.97 2159.67 1962.77 2160.89 1962.36 2162.1 1961.95 2163.09 1961.32 2163.87 1960.47 2164.64 1959.61 2165.24 1958.6 2165.66 1957.43 2166.08 1956.25 2166.3 1954.97 2166.3 1953.57 2166.3 1951.68 2165.81 1950.3 2164.85 1949.42 2163.89 1948.54 2162.3 1948.1 2160.07 1948.1ZM2149.84 1945.95 2160.61 1945.95C2162.54 1945.95 2164.13 1946.1 2165.38 1946.4 2166.62 1946.7 2167.65 1947.17 2168.46 1947.8 2169.26 1948.42 2169.86 1949.22 2170.26 1950.18 2170.66 1951.14 2170.86 1952.25 2170.86 1953.52 2170.86 1955.96 2170.28 1958.08 2169.13 1959.87 2167.97 1961.66 2166.41 1962.98 2164.43 1963.82 2162.45 1964.67 2160.08 1965.09 2157.31 1965.09 2155.65 1965.09 2154.27 1965.06 2153.16 1965L2151.6 1972.17C2151.45 1972.84 2151.35 1973.35 2151.29 1973.71 2151.24 1974.07 2151.19 1974.46 2151.15 1974.87 2151.11 1975.29 2151.09 1975.66 2151.09 1975.98 2151.09 1976.49 2151.17 1976.88 2151.33 1977.17 2151.49 1977.45 2151.74 1977.66 2152.06 1977.79 2152.39 1977.92 2152.95 1978.02 2153.75 1978.08L2153.48 1979.28 2143.44 1979.28 2143.71 1978.08C2144.33 1977.98 2144.79 1977.82 2145.1 1977.6 2145.41 1977.39 2145.67 1977.08 2145.89 1976.69 2146.1 1976.3 2146.29 1975.82 2146.47 1975.26 2146.65 1974.7 2146.92 1973.61 2147.28 1972L2151.43 1953.2C2151.79 1951.58 2151.96 1950.29 2151.96 1949.35 2151.96 1948.55 2151.78 1947.99 2151.4 1947.69 2151.03 1947.38 2150.42 1947.2 2149.57 1947.15Z" fill-rule="evenodd"/><text fill="#000000" fill-opacity="0" font-family="Arial,Arial_MSFontService,sans-serif" font-size="33.3252" x="2143.44" y="1975.11">𝑃</text><path d="M2171.73 1971.12C2172.39 1971.12 2172.93 1971.27 2173.36 1971.55 2173.78 1971.84 2174.13 1972.27 2174.4 1972.82 2174.68 1973.37 2174.91 1974.06 2175.09 1974.87 2175.27 1975.68 2175.46 1976.61 2175.67 1977.66L2175.9 1977.66C2176.63 1976.71 2177.25 1975.88 2177.78 1975.19 2178.31 1974.49 2178.78 1973.9 2179.2 1973.42 2179.62 1972.93 2179.99 1972.54 2180.32 1972.24 2180.65 1971.94 2180.97 1971.71 2181.29 1971.55 2181.6 1971.38 2181.92 1971.27 2182.25 1971.21 2182.58 1971.15 2182.96 1971.12 2183.36 1971.12 2183.97 1971.12 2184.51 1971.23 2185.01 1971.45L2184.11 1975.01 2182.61 1975.01C2182.57 1974.49 2182.38 1974.23 2182.03 1974.23 2181.9 1974.23 2181.75 1974.25 2181.59 1974.3 2181.44 1974.35 2181.25 1974.45 2181.03 1974.59 2180.82 1974.73 2180.57 1974.94 2180.28 1975.2 2180 1975.45 2179.67 1975.79 2179.28 1976.21 2178.9 1976.62 2178.46 1977.13 2177.96 1977.73 2177.47 1978.34 2176.9 1979.05 2176.26 1979.87 2176.59 1981.53 2176.87 1982.86 2177.1 1983.86 2177.34 1984.86 2177.57 1985.62 2177.78 1986.15 2178 1986.68 2178.22 1987.03 2178.43 1987.19 2178.65 1987.35 2178.9 1987.44 2179.17 1987.44 2179.38 1987.44 2179.57 1987.41 2179.74 1987.36 2179.92 1987.31 2180.1 1987.21 2180.28 1987.05 2180.47 1986.88 2180.68 1986.65 2180.91 1986.34 2181.14 1986.04 2181.41 1985.63 2181.72 1985.12L2183.08 1986.01C2182.55 1986.8 2182.08 1987.45 2181.67 1987.96 2181.26 1988.46 2180.86 1988.86 2180.47 1989.15 2180.09 1989.44 2179.69 1989.64 2179.28 1989.74 2178.87 1989.84 2178.4 1989.89 2177.87 1989.89 2177.41 1989.89 2177.01 1989.83 2176.64 1989.7 2176.28 1989.58 2175.97 1989.34 2175.7 1989.01 2175.52 1988.8 2175.35 1988.53 2175.2 1988.18 2175.04 1987.84 2174.9 1987.47 2174.76 1987.07 2174.63 1986.68 2174.51 1986.26 2174.4 1985.84 2174.3 1985.41 2174.2 1985.01 2174.13 1984.63 2174.06 1984.26 2174 1983.93 2173.96 1983.63 2173.92 1983.34 2173.89 1983.12 2173.88 1982.97L2173.68 1982.97C2172.96 1983.94 2172.33 1984.78 2171.79 1985.49 2171.26 1986.21 2170.77 1986.82 2170.34 1987.34 2169.91 1987.85 2169.51 1988.27 2169.16 1988.6 2168.81 1988.93 2168.47 1989.19 2168.13 1989.39 2167.8 1989.58 2167.45 1989.71 2167.1 1989.78 2166.74 1989.86 2166.35 1989.89 2165.91 1989.89 2165.29 1989.89 2164.75 1989.78 2164.3 1989.57L2165.14 1986.04 2166.67 1986.04C2166.71 1986.57 2166.91 1986.84 2167.27 1986.84 2167.4 1986.83 2167.53 1986.8 2167.66 1986.77 2167.78 1986.73 2167.93 1986.66 2168.1 1986.54 2168.27 1986.43 2168.48 1986.25 2168.74 1986 2169 1985.75 2169.33 1985.41 2169.72 1984.97 2170.12 1984.53 2170.61 1983.98 2171.19 1983.32 2171.77 1982.65 2172.46 1981.83 2173.27 1980.86 2173.05 1979.85 2172.86 1978.97 2172.7 1978.22 2172.53 1977.47 2172.38 1976.83 2172.24 1976.3 2172.11 1975.76 2171.97 1975.32 2171.84 1974.99 2171.71 1974.65 2171.57 1974.38 2171.43 1974.18 2171.29 1973.98 2171.14 1973.84 2170.98 1973.76 2170.82 1973.67 2170.63 1973.63 2170.41 1973.61 2170.21 1973.61 2170.02 1973.65 2169.84 1973.71 2169.67 1973.78 2169.49 1973.9 2169.3 1974.07 2169.11 1974.23 2168.91 1974.47 2168.69 1974.77 2168.46 1975.07 2168.21 1975.46 2167.92 1975.94L2166.53 1975.04C2167.02 1974.31 2167.47 1973.69 2167.86 1973.18 2168.26 1972.67 2168.65 1972.27 2169.04 1971.97 2169.42 1971.67 2169.83 1971.45 2170.26 1971.32 2170.68 1971.19 2171.18 1971.12 2171.73 1971.12Z" fill-rule="evenodd"/><text fill="#000000" fill-opacity="0" font-family="Arial,Arial_MSFontService,sans-serif" font-size="18.771" x="2164.3" y="1987.55">𝑥</text><path d="M2188.89 1985.38 2192.05 1985.38C2192.22 1986.22 2192.3 1987.05 2192.3 1987.87 2192.3 1988.71 2192.16 1989.48 2191.87 1990.18 2191.58 1990.88 2191.12 1991.58 2190.48 1992.27 2189.85 1992.96 2188.98 1993.72 2187.87 1994.55L2186.9 1993.45C2187.51 1992.87 2187.96 1992.35 2188.23 1991.89 2188.51 1991.42 2188.71 1990.9 2188.83 1990.31 2188.95 1989.72 2189.01 1988.98 2189.01 1988.09 2189.01 1987.17 2188.97 1986.27 2188.89 1985.38Z" fill-rule="evenodd"/><text fill="#000000" fill-opacity="0" font-family="Arial,Arial_MSFontService,sans-serif" font-size="9.17773" x="2186.9" y="1993.41">,</text><path d="M2240.65 1972.91C2239.94 1972.91 2239.28 1973.07 2238.66 1973.38 2238.05 1973.69 2237.49 1974.12 2236.98 1974.66 2236.48 1975.2 2236.03 1975.83 2235.64 1976.54 2235.24 1977.25 2234.91 1978 2234.64 1978.8 2234.37 1979.59 2234.17 1980.41 2234.03 1981.25 2233.89 1982.08 2233.82 1982.89 2233.82 1983.66 2233.82 1984.96 2234 1985.93 2234.37 1986.56 2234.74 1987.19 2235.33 1987.51 2236.15 1987.51 2236.56 1987.51 2236.95 1987.44 2237.33 1987.29 2237.71 1987.15 2238.11 1986.92 2238.54 1986.6 2239.6 1985.77 2240.5 1984.76 2241.25 1983.57 2241.99 1982.38 2242.55 1980.97 2242.93 1979.34 2243.09 1978.59 2243.23 1977.92 2243.32 1977.32 2243.42 1976.72 2243.47 1976.14 2243.47 1975.6 2243.47 1974.64 2243.24 1973.95 2242.79 1973.53 2242.34 1973.12 2241.62 1972.91 2240.65 1972.91ZM2258.93 1971.12C2259.6 1971.12 2260.14 1971.27 2260.56 1971.55 2260.98 1971.84 2261.33 1972.27 2261.61 1972.82 2261.88 1973.37 2262.11 1974.06 2262.29 1974.87 2262.47 1975.68 2262.67 1976.61 2262.87 1977.66L2263.11 1977.66C2263.83 1976.71 2264.46 1975.88 2264.99 1975.19 2265.52 1974.49 2265.99 1973.9 2266.4 1973.42 2266.82 1972.93 2267.19 1972.54 2267.52 1972.24 2267.86 1971.94 2268.18 1971.71 2268.49 1971.55 2268.8 1971.38 2269.13 1971.27 2269.46 1971.21 2269.79 1971.15 2270.16 1971.12 2270.57 1971.12 2271.17 1971.12 2271.72 1971.23 2272.21 1971.45L2271.31 1975.01 2269.81 1975.01C2269.77 1974.49 2269.58 1974.23 2269.23 1974.23 2269.1 1974.23 2268.95 1974.25 2268.8 1974.3 2268.64 1974.35 2268.45 1974.45 2268.24 1974.59 2268.02 1974.73 2267.77 1974.94 2267.49 1975.2 2267.21 1975.45 2266.87 1975.79 2266.49 1976.21 2266.1 1976.62 2265.66 1977.13 2265.17 1977.73 2264.67 1978.34 2264.11 1979.05 2263.47 1979.87 2263.79 1981.53 2264.07 1982.86 2264.31 1983.86 2264.54 1984.86 2264.77 1985.62 2264.99 1986.15 2265.2 1986.68 2265.42 1987.03 2265.64 1987.19 2265.85 1987.35 2266.1 1987.44 2266.38 1987.44 2266.58 1987.44 2266.77 1987.41 2266.95 1987.36 2267.12 1987.31 2267.3 1987.21 2267.49 1987.05 2267.68 1986.88 2267.88 1986.65 2268.11 1986.34 2268.34 1986.04 2268.61 1985.63 2268.92 1985.12L2270.28 1986.01C2269.75 1986.8 2269.28 1987.45 2268.87 1987.96 2268.46 1988.46 2268.06 1988.86 2267.68 1989.15 2267.29 1989.44 2266.9 1989.64 2266.49 1989.74 2266.08 1989.84 2265.61 1989.89 2265.08 1989.89 2264.62 1989.89 2264.21 1989.83 2263.85 1989.7 2263.49 1989.58 2263.17 1989.34 2262.91 1989.01 2262.73 1988.8 2262.56 1988.53 2262.4 1988.18 2262.25 1987.84 2262.1 1987.47 2261.97 1987.07 2261.84 1986.68 2261.72 1986.26 2261.61 1985.84 2261.5 1985.41 2261.41 1985.01 2261.34 1984.63 2261.26 1984.26 2261.21 1983.93 2261.17 1983.63 2261.12 1983.34 2261.1 1983.12 2261.08 1982.97L2260.89 1982.97C2260.16 1983.94 2259.53 1984.78 2259 1985.49 2258.46 1986.21 2257.98 1986.82 2257.54 1987.34 2257.11 1987.85 2256.72 1988.27 2256.37 1988.6 2256.02 1988.93 2255.68 1989.19 2255.34 1989.39 2255 1989.58 2254.66 1989.71 2254.3 1989.78 2253.94 1989.86 2253.55 1989.89 2253.12 1989.89 2252.49 1989.89 2251.95 1989.78 2251.51 1989.57L2252.34 1986.04 2253.88 1986.04C2253.91 1986.57 2254.11 1986.84 2254.47 1986.84 2254.6 1986.83 2254.73 1986.8 2254.86 1986.77 2254.99 1986.73 2255.13 1986.66 2255.3 1986.54 2255.47 1986.43 2255.68 1986.25 2255.94 1986 2256.2 1985.75 2256.53 1985.41 2256.93 1984.97 2257.33 1984.53 2257.81 1983.98 2258.39 1983.32 2258.97 1982.65 2259.66 1981.83 2260.47 1980.86 2260.25 1979.85 2260.06 1978.97 2259.9 1978.22 2259.74 1977.47 2259.59 1976.83 2259.45 1976.3 2259.31 1975.76 2259.17 1975.32 2259.04 1974.99 2258.91 1974.65 2258.77 1974.38 2258.64 1974.18 2258.5 1973.98 2258.35 1973.84 2258.18 1973.76 2258.02 1973.67 2257.83 1973.63 2257.61 1973.61 2257.41 1973.61 2257.22 1973.65 2257.05 1973.71 2256.87 1973.78 2256.69 1973.9 2256.5 1974.07 2256.32 1974.23 2256.11 1974.47 2255.89 1974.77 2255.67 1975.07 2255.41 1975.46 2255.12 1975.94L2253.73 1975.04C2254.22 1974.31 2254.67 1973.69 2255.07 1973.18 2255.47 1972.67 2255.86 1972.27 2256.24 1971.97 2256.63 1971.67 2257.03 1971.45 2257.46 1971.32 2257.89 1971.19 2258.38 1971.12 2258.93 1971.12ZM2240.32 1971.12C2241.28 1971.12 2242.12 1971.23 2242.84 1971.46 2243.57 1971.68 2244.24 1971.98 2244.84 1972.37L2246.59 1971.12 2248.06 1971.5 2245.33 1983.33C2245.17 1984.01 2245.06 1984.57 2245 1985.01 2244.94 1985.44 2244.91 1985.83 2244.91 1986.17 2244.91 1986.63 2245.01 1986.96 2245.19 1987.16 2245.38 1987.37 2245.65 1987.47 2246 1987.47 2246.21 1987.47 2246.43 1987.43 2246.64 1987.34 2246.85 1987.26 2247.08 1987.13 2247.32 1986.95 2247.57 1986.77 2247.84 1986.53 2248.14 1986.25 2248.43 1985.97 2248.77 1985.63 2249.14 1985.23 2249.33 1985.44 2249.53 1985.64 2249.74 1985.84 2249.94 1986.04 2250.14 1986.23 2250.33 1986.42 2249.73 1987.04 2249.18 1987.56 2248.69 1988 2248.19 1988.44 2247.72 1988.81 2247.25 1989.09 2246.79 1989.37 2246.33 1989.58 2245.89 1989.7 2245.44 1989.83 2244.98 1989.89 2244.5 1989.89 2243.63 1989.89 2242.96 1989.61 2242.47 1989.05 2241.99 1988.49 2241.75 1987.72 2241.75 1986.75 2241.75 1986.21 2241.84 1985.69 2242 1985.19L2241.75 1985.09C2241.14 1985.94 2240.54 1986.67 2239.96 1987.27 2239.38 1987.87 2238.81 1988.37 2238.25 1988.76 2237.68 1989.15 2237.11 1989.44 2236.53 1989.62 2235.95 1989.8 2235.35 1989.89 2234.72 1989.89 2233.29 1989.89 2232.18 1989.38 2231.4 1988.35 2230.62 1987.32 2230.22 1985.82 2230.22 1983.86 2230.22 1982.69 2230.35 1981.57 2230.6 1980.49 2230.84 1979.41 2231.19 1978.4 2231.64 1977.45 2232.09 1976.51 2232.63 1975.65 2233.26 1974.87 2233.89 1974.09 2234.57 1973.43 2235.32 1972.87 2236.07 1972.32 2236.86 1971.89 2237.7 1971.58 2238.55 1971.27 2239.42 1971.12 2240.32 1971.12ZM2200.49 1971.12C2201.38 1971.12 2202.07 1971.41 2202.56 1972 2203.04 1972.58 2203.29 1973.35 2203.29 1974.3 2203.29 1974.57 2203.27 1974.82 2203.23 1975.08 2203.2 1975.33 2203.13 1975.58 2203.04 1975.82L2203.25 1975.91C2204.4 1974.31 2205.54 1973.11 2206.69 1972.31 2207.83 1971.52 2209 1971.12 2210.21 1971.12 2211.48 1971.12 2212.44 1971.45 2213.07 1972.11 2213.7 1972.76 2214.02 1973.73 2214.02 1975.01 2214.02 1975.11 2214.02 1975.22 2214.02 1975.32 2214.02 1975.42 2214.01 1975.53 2213.98 1975.64L2214.06 1975.64C2215.18 1974.11 2216.29 1972.97 2217.4 1972.23 2218.51 1971.49 2219.66 1971.12 2220.87 1971.12 2222.14 1971.12 2223.1 1971.46 2223.73 1972.15 2224.36 1972.84 2224.68 1973.8 2224.68 1975.04 2224.68 1975.42 2224.62 1975.92 2224.5 1976.55 2224.38 1977.18 2224.23 1977.88 2224.06 1978.64 2223.88 1979.4 2223.69 1980.18 2223.49 1980.99 2223.28 1981.81 2223.09 1982.58 2222.91 1983.3 2222.8 1983.77 2222.71 1984.15 2222.65 1984.45 2222.58 1984.74 2222.53 1984.99 2222.49 1985.19 2222.46 1985.38 2222.43 1985.56 2222.42 1985.7 2222.41 1985.85 2222.4 1986 2222.4 1986.17 2222.4 1986.63 2222.49 1986.96 2222.66 1987.16 2222.82 1987.37 2223.1 1987.47 2223.47 1987.47 2223.69 1987.47 2223.9 1987.43 2224.12 1987.34 2224.34 1987.26 2224.57 1987.13 2224.81 1986.95 2225.06 1986.77 2225.33 1986.53 2225.63 1986.25 2225.92 1985.97 2226.25 1985.63 2226.61 1985.23L2227.86 1986.42C2227.28 1987.03 2226.74 1987.54 2226.24 1987.98 2225.74 1988.41 2225.26 1988.77 2224.8 1989.05 2224.33 1989.34 2223.87 1989.55 2223.41 1989.68 2222.96 1989.82 2222.48 1989.89 2221.97 1989.89 2221.51 1989.89 2221.1 1989.81 2220.72 1989.64 2220.35 1989.47 2220.03 1989.24 2219.77 1988.94 2219.52 1988.65 2219.31 1988.3 2219.17 1987.9 2219.02 1987.49 2218.95 1987.05 2218.95 1986.57 2218.95 1985.58 2219.16 1984.31 2219.58 1982.76 2219.81 1981.97 2220.02 1981.22 2220.21 1980.51 2220.39 1979.79 2220.55 1979.13 2220.69 1978.52 2220.82 1977.91 2220.92 1977.37 2221 1976.89 2221.08 1976.42 2221.12 1976.02 2221.12 1975.71 2221.12 1974.96 2220.98 1974.42 2220.7 1974.07 2220.41 1973.72 2219.97 1973.54 2219.37 1973.54 2218.99 1973.54 2218.6 1973.64 2218.18 1973.83 2217.75 1974.02 2217.33 1974.29 2216.9 1974.64 2216.47 1974.98 2216.06 1975.38 2215.65 1975.85 2215.24 1976.32 2214.86 1976.83 2214.51 1977.38 2214.16 1977.93 2213.85 1978.5 2213.58 1979.11 2213.31 1979.71 2213.1 1980.32 2212.95 1980.93L2211.17 1989.57 2207.64 1989.57C2207.81 1988.8 2208 1987.97 2208.21 1987.08 2208.42 1986.2 2208.64 1985.3 2208.85 1984.4 2209.07 1983.5 2209.28 1982.61 2209.48 1981.73 2209.68 1980.85 2209.85 1980.02 2210.01 1979.26 2210.17 1978.5 2210.29 1977.81 2210.39 1977.2 2210.49 1976.59 2210.53 1976.11 2210.53 1975.75 2210.53 1974.99 2210.39 1974.43 2210.09 1974.08 2209.8 1973.72 2209.32 1973.54 2208.67 1973.54 2208.09 1973.54 2207.47 1973.76 2206.81 1974.19 2206.15 1974.63 2205.52 1975.2 2204.92 1975.9 2204.33 1976.6 2203.79 1977.4 2203.32 1978.28 2202.86 1979.17 2202.52 1980.06 2202.33 1980.97L2200.49 1989.57 2196.95 1989.57 2199.66 1977.79C2199.81 1977.14 2199.93 1976.57 2200 1976.09 2200.07 1975.61 2200.11 1975.21 2200.11 1974.9 2200.11 1974.02 2199.75 1973.58 2199.04 1973.58 2198.83 1973.58 2198.61 1973.62 2198.38 1973.71 2198.16 1973.8 2197.93 1973.94 2197.68 1974.12 2197.43 1974.3 2197.16 1974.53 2196.88 1974.81 2196.59 1975.08 2196.26 1975.41 2195.9 1975.78L2194.65 1974.61C2195.24 1974.01 2195.79 1973.48 2196.29 1973.05 2196.79 1972.61 2197.27 1972.24 2197.73 1971.96 2198.2 1971.68 2198.65 1971.47 2199.1 1971.33 2199.54 1971.19 2200.01 1971.12 2200.49 1971.12Z" fill-rule="evenodd"/><text fill="#000000" fill-opacity="0" font-family="Arial,Arial_MSFontService,sans-serif" font-size="18.771" x="2194.65" y="1987.55">𝑚𝑎𝑥</text><path d="M2142.2 1929.55 2276.2 1929.55 2276.2 1932.55 2142.2 1932.55Z" fill="#836967" fill-rule="evenodd"/><path d="M2315.75 1854.8C2317 1854.8 2318.07 1854.94 2318.96 1855.22 2319.84 1855.5 2320.56 1855.89 2321.12 1856.37 2321.67 1856.85 2322.07 1857.43 2322.32 1858.1 2322.57 1858.78 2322.69 1859.51 2322.69 1860.29 2322.69 1860.76 2322.66 1861.19 2322.59 1861.6 2322.52 1862 2322.41 1862.4 2322.25 1862.79 2322.08 1863.18 2321.87 1863.58 2321.61 1863.97 2321.34 1864.37 2321.01 1864.79 2320.61 1865.24 2320.31 1865.62 2319.92 1866.07 2319.44 1866.58 2318.96 1867.08 2318.43 1867.62 2317.86 1868.2 2317.28 1868.78 2316.69 1869.38 2316.06 1870.01 2315.43 1870.63 2314.82 1871.25 2314.23 1871.87 2313.64 1872.48 2313.1 1873.08 2312.61 1873.66 2312.11 1874.24 2311.71 1874.77 2311.4 1875.25L2318.08 1875.25C2318.65 1875.25 2319.1 1875.23 2319.44 1875.18 2319.77 1875.14 2320.05 1875.05 2320.28 1874.9 2320.5 1874.76 2320.69 1874.54 2320.85 1874.24 2321 1873.95 2321.18 1873.54 2321.39 1873.03L2323.07 1873.03C2323.01 1873.88 2322.95 1874.74 2322.9 1875.61 2322.84 1876.48 2322.79 1877.34 2322.73 1878.19L2307.42 1878.19 2307.42 1877.25C2307.71 1876.6 2308.05 1875.96 2308.44 1875.33 2308.82 1874.7 2309.25 1874.05 2309.74 1873.4 2310.22 1872.75 2310.77 1872.08 2311.38 1871.39 2311.99 1870.7 2312.67 1869.98 2313.42 1869.23 2314.55 1868.1 2315.48 1867.13 2316.19 1866.33 2316.9 1865.53 2317.46 1864.82 2317.87 1864.19 2318.28 1863.56 2318.56 1862.99 2318.71 1862.46 2318.86 1861.93 2318.93 1861.36 2318.93 1860.76 2318.93 1860.14 2318.84 1859.58 2318.67 1859.06 2318.5 1858.54 2318.25 1858.1 2317.92 1857.74 2317.59 1857.38 2317.18 1857.1 2316.68 1856.89 2316.18 1856.69 2315.61 1856.58 2314.96 1856.58 2313.84 1856.58 2312.9 1856.89 2312.14 1857.5 2311.38 1858.11 2310.79 1858.99 2310.37 1860.14L2308 1860.14 2308 1856.62C2309.54 1855.98 2310.96 1855.52 2312.26 1855.23 2313.55 1854.94 2314.72 1854.8 2315.75 1854.8Z" fill-rule="evenodd"/><text fill="#000000" fill-opacity="0" font-family="Arial,Arial_MSFontService,sans-serif" font-size="23.396" x="2307.42" y="1875.27">2</text><path d="M2356.4 1915.56 2359.87 1915.56 2359.87 1929.63 2373.17 1929.63 2373.17 1932.87 2359.87 1932.87 2359.87 1946.94 2356.4 1946.94 2356.4 1932.87 2343.09 1932.87 2343.09 1929.63 2356.4 1929.63Z" fill-rule="evenodd"/><text fill="#000000" fill-opacity="0" font-family="Arial,Arial_MSFontService,sans-serif" font-size="31.3721" x="2343.09" y="1943.01">+</text><path d="M2405.49 1924.67C2404.71 1924.67 2403.94 1924.92 2403.18 1925.41 2402.43 1925.91 2401.59 1926.73 2400.66 1927.88 2399.73 1929.03 2398.97 1930.2 2398.39 1931.41 2397.8 1932.61 2397.3 1934.15 2396.9 1936.02L2396.68 1937.05C2396.43 1938.19 2396.31 1939.29 2396.31 1940.37 2396.31 1941.65 2396.59 1942.58 2397.15 1943.15 2397.72 1943.72 2398.65 1944.01 2399.95 1944.01 2400.62 1944.01 2401.25 1943.9 2401.85 1943.68 2402.46 1943.46 2403.07 1943.09 2403.7 1942.59 2404.32 1942.09 2404.92 1941.42 2405.48 1940.6 2406.04 1939.78 2406.56 1938.77 2407.03 1937.56 2407.5 1936.36 2407.87 1935.07 2408.13 1933.69 2408.39 1932.32 2408.52 1931 2408.52 1929.75 2408.52 1928.06 2408.28 1926.79 2407.8 1925.94 2407.32 1925.09 2406.55 1924.67 2405.49 1924.67ZM2401.22 1910.63 2402.64 1910.63 2398.34 1927.72 2398.66 1927.82C2400.23 1925.7 2401.72 1924.17 2403.1 1923.23 2404.48 1922.29 2405.87 1921.81 2407.25 1921.81 2409.02 1921.81 2410.4 1922.49 2411.39 1923.84 2412.37 1925.19 2412.86 1927.1 2412.86 1929.55 2412.86 1932.24 2412.32 1934.88 2411.24 1937.48 2410.16 1940.07 2408.66 1942.13 2406.74 1943.65 2404.82 1945.17 2402.67 1945.93 2400.29 1945.93 2398.13 1945.93 2396.21 1945.41 2394.53 1944.35L2392.28 1945.93 2390.72 1945.54 2397.04 1917.64C2397.42 1915.98 2397.61 1914.77 2397.61 1914.03 2397.61 1913.34 2397.4 1912.86 2396.98 1912.59 2396.57 1912.31 2395.82 1912.15 2394.75 1912.12L2395.04 1910.85Z" fill-rule="evenodd"/><text fill="#000000" fill-opacity="0" font-family="Arial,Arial_MSFontService,sans-serif" font-size="35.3027" x="2390.72" y="1941.52">𝑏</text><path d="M2590.59 1867.52C2597.28 1873.24 2602.59 1881.79 2606.52 1893.15 2610.45 1904.51 2612.41 1917.19 2612.41 1931.19 2612.41 1944.97 2610.45 1957.63 2606.52 1969.16 2602.59 1980.69 2597.28 1989.31 2590.59 1995.01L2589.44 1993.2C2595.22 1987.32 2599.67 1978.82 2602.79 1967.69 2605.92 1956.55 2607.48 1944.4 2607.48 1931.21 2607.48 1917.72 2605.91 1905.5 2602.77 1894.57 2599.63 1883.63 2595.18 1875.22 2589.44 1869.35ZM2450.84 1867.52 2451.99 1869.35C2446.23 1875.22 2441.78 1883.63 2438.65 1894.57 2435.51 1905.5 2433.95 1917.72 2433.95 1931.21 2433.95 1944.4 2435.51 1956.55 2438.63 1967.69 2441.76 1978.82 2446.21 1987.32 2451.99 1993.2L2450.84 1995.01C2444.15 1989.31 2438.84 1980.69 2434.91 1969.16 2430.98 1957.63 2429.01 1944.97 2429.01 1931.19 2429.01 1917.19 2430.98 1904.51 2434.91 1893.15 2438.84 1881.79 2444.15 1873.24 2450.84 1867.52Z" fill="#836967" fill-rule="evenodd"/><path d="M2522.47 1876.21C2521.46 1876.21 2520.41 1876.24 2519.3 1876.28L2515.98 1891.08 2518.52 1891.08C2520.49 1891.08 2522.08 1890.88 2523.29 1890.47 2524.5 1890.06 2525.5 1889.43 2526.27 1888.58 2527.04 1887.72 2527.64 1886.71 2528.06 1885.54 2528.49 1884.37 2528.7 1883.08 2528.7 1881.68 2528.7 1879.79 2528.22 1878.41 2527.26 1877.53 2526.3 1876.65 2524.7 1876.21 2522.47 1876.21ZM2512.24 1874.06 2523.01 1874.06C2524.95 1874.06 2526.54 1874.21 2527.78 1874.51 2529.03 1874.82 2530.05 1875.28 2530.86 1875.91 2531.67 1876.53 2532.27 1877.33 2532.67 1878.29 2533.07 1879.25 2533.26 1880.36 2533.26 1881.63 2533.26 1884.07 2532.69 1886.19 2531.53 1887.98 2530.38 1889.77 2528.81 1891.09 2526.83 1891.93 2524.85 1892.78 2522.48 1893.2 2519.71 1893.2 2518.05 1893.2 2516.67 1893.17 2515.56 1893.11L2514 1900.28C2513.86 1900.95 2513.75 1901.46 2513.7 1901.82 2513.64 1902.18 2513.59 1902.57 2513.55 1902.98 2513.51 1903.4 2513.49 1903.77 2513.49 1904.09 2513.49 1904.6 2513.57 1904.99 2513.73 1905.28 2513.9 1905.56 2514.14 1905.77 2514.47 1905.9 2514.79 1906.03 2515.35 1906.13 2516.15 1906.19L2515.88 1907.39 2505.85 1907.39 2506.12 1906.19C2506.73 1906.09 2507.2 1905.94 2507.51 1905.72 2507.82 1905.5 2508.08 1905.19 2508.29 1904.8 2508.5 1904.41 2508.7 1903.93 2508.88 1903.37 2509.05 1902.81 2509.32 1901.72 2509.68 1900.11L2513.83 1881.31C2514.19 1879.69 2514.37 1878.4 2514.37 1877.46 2514.37 1876.66 2514.18 1876.11 2513.81 1875.8 2513.43 1875.49 2512.82 1875.31 2511.98 1875.26Z" fill-rule="evenodd"/><text fill="#000000" fill-opacity="0" font-family="Arial,Arial_MSFontService,sans-serif" font-size="33.3252" x="2505.85" y="1903.22">𝑃</text><path d="M2471.85 1948.1C2470.84 1948.1 2469.78 1948.12 2468.68 1948.17L2465.36 1962.97 2467.9 1962.97C2469.87 1962.97 2471.46 1962.77 2472.67 1962.36 2473.88 1961.95 2474.87 1961.32 2475.65 1960.47 2476.42 1959.61 2477.02 1958.6 2477.44 1957.43 2477.86 1956.25 2478.08 1954.97 2478.08 1953.57 2478.08 1951.68 2477.6 1950.3 2476.64 1949.42 2475.68 1948.54 2474.08 1948.1 2471.85 1948.1ZM2461.62 1945.95 2472.39 1945.95C2474.32 1945.95 2475.92 1946.1 2477.16 1946.4 2478.41 1946.7 2479.43 1947.17 2480.24 1947.8 2481.04 1948.42 2481.65 1949.22 2482.04 1950.18 2482.44 1951.14 2482.64 1952.25 2482.64 1953.52 2482.64 1955.96 2482.06 1958.08 2480.91 1959.87 2479.75 1961.66 2478.19 1962.98 2476.21 1963.82 2474.23 1964.67 2471.86 1965.09 2469.09 1965.09 2467.43 1965.09 2466.05 1965.06 2464.94 1965L2463.38 1972.17C2463.23 1972.84 2463.13 1973.35 2463.07 1973.71 2463.02 1974.07 2462.97 1974.46 2462.93 1974.87 2462.89 1975.29 2462.87 1975.66 2462.87 1975.98 2462.87 1976.49 2462.95 1976.88 2463.11 1977.17 2463.27 1977.45 2463.52 1977.66 2463.84 1977.79 2464.17 1977.92 2464.73 1978.02 2465.53 1978.08L2465.26 1979.28 2455.22 1979.28 2455.49 1978.08C2456.11 1977.98 2456.58 1977.82 2456.89 1977.6 2457.19 1977.39 2457.45 1977.08 2457.67 1976.69 2457.88 1976.3 2458.07 1975.82 2458.25 1975.26 2458.43 1974.7 2458.7 1973.61 2459.06 1972L2463.21 1953.2C2463.57 1951.58 2463.75 1950.29 2463.75 1949.35 2463.75 1948.55 2463.56 1947.99 2463.18 1947.69 2462.81 1947.38 2462.2 1947.2 2461.35 1947.15Z" fill-rule="evenodd"/><text fill="#000000" fill-opacity="0" font-family="Arial,Arial_MSFontService,sans-serif" font-size="33.3252" x="2455.22" y="1975.11">𝑃</text><path d="M2483.51 1971.12C2484.17 1971.12 2484.72 1971.27 2485.14 1971.55 2485.56 1971.84 2485.91 1972.27 2486.18 1972.82 2486.46 1973.37 2486.69 1974.06 2486.87 1974.87 2487.05 1975.68 2487.24 1976.61 2487.45 1977.66L2487.68 1977.66C2488.41 1976.71 2489.03 1975.88 2489.56 1975.19 2490.09 1974.49 2490.57 1973.9 2490.98 1973.42 2491.4 1972.93 2491.77 1972.54 2492.1 1972.24 2492.43 1971.94 2492.75 1971.71 2493.07 1971.55 2493.38 1971.38 2493.7 1971.27 2494.03 1971.21 2494.37 1971.15 2494.74 1971.12 2495.15 1971.12 2495.75 1971.12 2496.3 1971.23 2496.79 1971.45L2495.89 1975.01 2494.39 1975.01C2494.35 1974.49 2494.16 1974.23 2493.81 1974.23 2493.68 1974.23 2493.53 1974.25 2493.38 1974.3 2493.22 1974.35 2493.03 1974.45 2492.82 1974.59 2492.6 1974.73 2492.35 1974.94 2492.07 1975.2 2491.78 1975.45 2491.45 1975.79 2491.06 1976.21 2490.68 1976.62 2490.24 1977.13 2489.74 1977.73 2489.25 1978.34 2488.68 1979.05 2488.05 1979.87 2488.37 1981.53 2488.65 1982.86 2488.89 1983.86 2489.12 1984.86 2489.35 1985.62 2489.56 1986.15 2489.78 1986.68 2490 1987.03 2490.21 1987.19 2490.43 1987.35 2490.68 1987.44 2490.95 1987.44 2491.16 1987.44 2491.35 1987.41 2491.52 1987.36 2491.7 1987.31 2491.88 1987.21 2492.07 1987.05 2492.25 1986.88 2492.46 1986.65 2492.69 1986.34 2492.92 1986.04 2493.19 1985.63 2493.5 1985.12L2494.86 1986.01C2494.33 1986.8 2493.86 1987.45 2493.45 1987.96 2493.04 1988.46 2492.64 1988.86 2492.26 1989.15 2491.87 1989.44 2491.47 1989.64 2491.06 1989.74 2490.65 1989.84 2490.18 1989.89 2489.65 1989.89 2489.2 1989.89 2488.79 1989.83 2488.43 1989.7 2488.06 1989.58 2487.75 1989.34 2487.49 1989.01 2487.3 1988.8 2487.14 1988.53 2486.98 1988.18 2486.82 1987.84 2486.68 1987.47 2486.55 1987.07 2486.41 1986.68 2486.29 1986.26 2486.18 1985.84 2486.08 1985.41 2485.99 1985.01 2485.91 1984.63 2485.84 1984.26 2485.78 1983.93 2485.74 1983.63 2485.7 1983.34 2485.67 1983.12 2485.66 1982.97L2485.46 1982.97C2484.74 1983.94 2484.11 1984.78 2483.57 1985.49 2483.04 1986.21 2482.55 1986.82 2482.12 1987.34 2481.69 1987.85 2481.29 1988.27 2480.95 1988.6 2480.6 1988.93 2480.25 1989.19 2479.92 1989.39 2479.58 1989.58 2479.23 1989.71 2478.88 1989.78 2478.52 1989.86 2478.13 1989.89 2477.69 1989.89 2477.07 1989.89 2476.53 1989.78 2476.09 1989.57L2476.92 1986.04 2478.45 1986.04C2478.49 1986.57 2478.69 1986.84 2479.05 1986.84 2479.18 1986.83 2479.31 1986.8 2479.44 1986.77 2479.56 1986.73 2479.71 1986.66 2479.88 1986.54 2480.05 1986.43 2480.26 1986.25 2480.52 1986 2480.78 1985.75 2481.11 1985.41 2481.51 1984.97 2481.9 1984.53 2482.39 1983.98 2482.97 1983.32 2483.55 1982.65 2484.24 1981.83 2485.05 1980.86 2484.83 1979.85 2484.64 1978.97 2484.48 1978.22 2484.31 1977.47 2484.16 1976.83 2484.03 1976.3 2483.89 1975.76 2483.75 1975.32 2483.62 1974.99 2483.49 1974.65 2483.35 1974.38 2483.21 1974.18 2483.07 1973.98 2482.92 1973.84 2482.76 1973.76 2482.6 1973.67 2482.41 1973.63 2482.19 1973.61 2481.99 1973.61 2481.8 1973.65 2481.62 1973.71 2481.45 1973.78 2481.27 1973.9 2481.08 1974.07 2480.89 1974.23 2480.69 1974.47 2480.47 1974.77 2480.24 1975.07 2479.99 1975.46 2479.7 1975.94L2478.31 1975.04C2478.8 1974.31 2479.25 1973.69 2479.64 1973.18 2480.04 1972.67 2480.43 1972.27 2480.82 1971.97 2481.2 1971.67 2481.61 1971.45 2482.04 1971.32 2482.47 1971.19 2482.96 1971.12 2483.51 1971.12Z" fill-rule="evenodd"/><text fill="#000000" fill-opacity="0" font-family="Arial,Arial_MSFontService,sans-serif" font-size="18.771" x="2476.09" y="1987.55">𝑥</text><path d="M2500.67 1985.38 2503.83 1985.38C2504 1986.22 2504.08 1987.05 2504.08 1987.87 2504.08 1988.71 2503.94 1989.48 2503.65 1990.18 2503.36 1990.88 2502.9 1991.58 2502.27 1992.27 2501.63 1992.96 2500.76 1993.72 2499.65 1994.55L2498.68 1993.45C2499.29 1992.87 2499.74 1992.35 2500.02 1991.89 2500.29 1991.42 2500.49 1990.9 2500.61 1990.31 2500.73 1989.72 2500.79 1988.98 2500.79 1988.09 2500.79 1987.17 2500.75 1986.27 2500.67 1985.38Z" fill-rule="evenodd"/><text fill="#000000" fill-opacity="0" font-family="Arial,Arial_MSFontService,sans-serif" font-size="9.17773" x="2498.68" y="1993.41">,</text><path d="M2552.43 1972.91C2551.72 1972.91 2551.06 1973.07 2550.44 1973.38 2549.83 1973.69 2549.27 1974.12 2548.76 1974.66 2548.26 1975.2 2547.81 1975.83 2547.42 1976.54 2547.03 1977.25 2546.69 1978 2546.42 1978.8 2546.15 1979.59 2545.95 1980.41 2545.81 1981.25 2545.67 1982.08 2545.6 1982.89 2545.6 1983.66 2545.6 1984.96 2545.78 1985.93 2546.15 1986.56 2546.52 1987.19 2547.11 1987.51 2547.93 1987.51 2548.34 1987.51 2548.74 1987.44 2549.12 1987.29 2549.49 1987.15 2549.9 1986.92 2550.32 1986.6 2551.38 1985.77 2552.28 1984.76 2553.03 1983.57 2553.77 1982.38 2554.33 1980.97 2554.71 1979.34 2554.88 1978.59 2555.01 1977.92 2555.1 1977.32 2555.2 1976.72 2555.25 1976.14 2555.25 1975.6 2555.25 1974.64 2555.02 1973.95 2554.57 1973.53 2554.12 1973.12 2553.41 1972.91 2552.43 1972.91ZM2570.72 1971.12C2571.38 1971.12 2571.92 1971.27 2572.34 1971.55 2572.76 1971.84 2573.11 1972.27 2573.39 1972.82 2573.67 1973.37 2573.89 1974.06 2574.08 1974.87 2574.26 1975.68 2574.45 1976.61 2574.65 1977.66L2574.89 1977.66C2575.61 1976.71 2576.24 1975.88 2576.77 1975.19 2577.3 1974.49 2577.77 1973.9 2578.19 1973.42 2578.6 1972.93 2578.97 1972.54 2579.31 1972.24 2579.64 1971.94 2579.96 1971.71 2580.27 1971.55 2580.59 1971.38 2580.91 1971.27 2581.24 1971.21 2581.57 1971.15 2581.94 1971.12 2582.35 1971.12 2582.95 1971.12 2583.5 1971.23 2583.99 1971.45L2583.09 1975.01 2581.59 1975.01C2581.55 1974.49 2581.36 1974.23 2581.01 1974.23 2580.88 1974.23 2580.74 1974.25 2580.58 1974.3 2580.42 1974.35 2580.24 1974.45 2580.02 1974.59 2579.8 1974.73 2579.55 1974.94 2579.27 1975.2 2578.99 1975.45 2578.65 1975.79 2578.27 1976.21 2577.88 1976.62 2577.44 1977.13 2576.95 1977.73 2576.45 1978.34 2575.89 1979.05 2575.25 1979.87 2575.57 1981.53 2575.85 1982.86 2576.09 1983.86 2576.32 1984.86 2576.55 1985.62 2576.77 1986.15 2576.98 1986.68 2577.2 1987.03 2577.42 1987.19 2577.63 1987.35 2577.88 1987.44 2578.16 1987.44 2578.36 1987.44 2578.55 1987.41 2578.73 1987.36 2578.9 1987.31 2579.08 1987.21 2579.27 1987.05 2579.46 1986.88 2579.66 1986.65 2579.89 1986.34 2580.12 1986.04 2580.39 1985.63 2580.71 1985.12L2582.06 1986.01C2581.53 1986.8 2581.06 1987.45 2580.65 1987.96 2580.24 1988.46 2579.84 1988.86 2579.46 1989.15 2579.07 1989.44 2578.68 1989.64 2578.27 1989.74 2577.86 1989.84 2577.39 1989.89 2576.86 1989.89 2576.4 1989.89 2575.99 1989.83 2575.63 1989.7 2575.27 1989.58 2574.95 1989.34 2574.69 1989.01 2574.51 1988.8 2574.34 1988.53 2574.18 1988.18 2574.03 1987.84 2573.88 1987.47 2573.75 1987.07 2573.62 1986.68 2573.5 1986.26 2573.39 1985.84 2573.28 1985.41 2573.19 1985.01 2573.12 1984.63 2573.05 1984.26 2572.99 1983.93 2572.95 1983.63 2572.9 1983.34 2572.88 1983.12 2572.86 1982.97L2572.67 1982.97C2571.94 1983.94 2571.31 1984.78 2570.78 1985.49 2570.24 1986.21 2569.76 1986.82 2569.32 1987.34 2568.89 1987.85 2568.5 1988.27 2568.15 1988.6 2567.8 1988.93 2567.46 1989.19 2567.12 1989.39 2566.78 1989.58 2566.44 1989.71 2566.08 1989.78 2565.73 1989.86 2565.33 1989.89 2564.9 1989.89 2564.27 1989.89 2563.74 1989.78 2563.29 1989.57L2564.12 1986.04 2565.66 1986.04C2565.69 1986.57 2565.89 1986.84 2566.25 1986.84 2566.39 1986.83 2566.51 1986.8 2566.64 1986.77 2566.77 1986.73 2566.92 1986.66 2567.08 1986.54 2567.25 1986.43 2567.47 1986.25 2567.73 1986 2567.98 1985.75 2568.31 1985.41 2568.71 1984.97 2569.11 1984.53 2569.59 1983.98 2570.17 1983.32 2570.75 1982.65 2571.44 1981.83 2572.25 1980.86 2572.03 1979.85 2571.84 1978.97 2571.68 1978.22 2571.52 1977.47 2571.37 1976.83 2571.23 1976.3 2571.09 1975.76 2570.96 1975.32 2570.82 1974.99 2570.69 1974.65 2570.56 1974.38 2570.42 1974.18 2570.28 1973.98 2570.13 1973.84 2569.97 1973.76 2569.8 1973.67 2569.61 1973.63 2569.4 1973.61 2569.19 1973.61 2569 1973.65 2568.83 1973.71 2568.65 1973.78 2568.47 1973.9 2568.29 1974.07 2568.1 1974.23 2567.89 1974.47 2567.67 1974.77 2567.45 1975.07 2567.19 1975.46 2566.9 1975.94L2565.51 1975.04C2566.01 1974.31 2566.45 1973.69 2566.85 1973.18 2567.25 1972.67 2567.64 1972.27 2568.02 1971.97 2568.41 1971.67 2568.82 1971.45 2569.24 1971.32 2569.67 1971.19 2570.16 1971.12 2570.72 1971.12ZM2552.11 1971.12C2553.06 1971.12 2553.9 1971.23 2554.63 1971.46 2555.35 1971.68 2556.02 1971.98 2556.62 1972.37L2558.37 1971.12 2559.84 1971.5 2557.11 1983.33C2556.95 1984.01 2556.84 1984.57 2556.78 1985.01 2556.72 1985.44 2556.69 1985.83 2556.69 1986.17 2556.69 1986.63 2556.79 1986.96 2556.97 1987.16 2557.16 1987.37 2557.43 1987.47 2557.78 1987.47 2557.99 1987.47 2558.21 1987.43 2558.42 1987.34 2558.63 1987.26 2558.86 1987.13 2559.11 1986.95 2559.35 1986.77 2559.62 1986.53 2559.92 1986.25 2560.21 1985.97 2560.55 1985.63 2560.92 1985.23 2561.11 1985.44 2561.31 1985.64 2561.52 1985.84 2561.72 1986.04 2561.92 1986.23 2562.11 1986.42 2561.51 1987.04 2560.96 1987.56 2560.47 1988 2559.98 1988.44 2559.5 1988.81 2559.03 1989.09 2558.57 1989.37 2558.12 1989.58 2557.67 1989.7 2557.22 1989.83 2556.76 1989.89 2556.28 1989.89 2555.41 1989.89 2554.74 1989.61 2554.26 1989.05 2553.77 1988.49 2553.53 1987.72 2553.53 1986.75 2553.53 1986.21 2553.62 1985.69 2553.79 1985.19L2553.53 1985.09C2552.92 1985.94 2552.32 1986.67 2551.74 1987.27 2551.17 1987.87 2550.59 1988.37 2550.03 1988.76 2549.46 1989.15 2548.89 1989.44 2548.31 1989.62 2547.73 1989.8 2547.13 1989.89 2546.5 1989.89 2545.07 1989.89 2543.96 1989.38 2543.18 1988.35 2542.4 1987.32 2542.01 1985.82 2542.01 1983.86 2542.01 1982.69 2542.13 1981.57 2542.38 1980.49 2542.62 1979.41 2542.97 1978.4 2543.42 1977.45 2543.88 1976.51 2544.42 1975.65 2545.04 1974.87 2545.67 1974.09 2546.35 1973.43 2547.1 1972.87 2547.85 1972.32 2548.64 1971.89 2549.49 1971.58 2550.33 1971.27 2551.2 1971.12 2552.11 1971.12ZM2512.27 1971.12C2513.16 1971.12 2513.85 1971.41 2514.34 1972 2514.83 1972.58 2515.07 1973.35 2515.07 1974.3 2515.07 1974.57 2515.05 1974.82 2515.02 1975.08 2514.98 1975.33 2514.91 1975.58 2514.82 1975.82L2515.03 1975.91C2516.18 1974.31 2517.32 1973.11 2518.47 1972.31 2519.61 1971.52 2520.79 1971.12 2521.99 1971.12 2523.27 1971.12 2524.22 1971.45 2524.85 1972.11 2525.49 1972.76 2525.8 1973.73 2525.8 1975.01 2525.8 1975.11 2525.8 1975.22 2525.8 1975.32 2525.8 1975.42 2525.79 1975.53 2525.77 1975.64L2525.84 1975.64C2526.96 1974.11 2528.07 1972.97 2529.18 1972.23 2530.29 1971.49 2531.44 1971.12 2532.65 1971.12 2533.93 1971.12 2534.88 1971.46 2535.51 1972.15 2536.14 1972.84 2536.46 1973.8 2536.46 1975.04 2536.46 1975.42 2536.4 1975.92 2536.28 1976.55 2536.16 1977.18 2536.01 1977.88 2535.84 1978.64 2535.66 1979.4 2535.47 1980.18 2535.27 1980.99 2535.06 1981.81 2534.87 1982.58 2534.69 1983.3 2534.58 1983.77 2534.49 1984.15 2534.43 1984.45 2534.36 1984.74 2534.31 1984.99 2534.27 1985.19 2534.24 1985.38 2534.21 1985.56 2534.2 1985.7 2534.19 1985.85 2534.18 1986 2534.18 1986.17 2534.18 1986.63 2534.27 1986.96 2534.44 1987.16 2534.61 1987.37 2534.88 1987.47 2535.25 1987.47 2535.47 1987.47 2535.68 1987.43 2535.9 1987.34 2536.12 1987.26 2536.35 1987.13 2536.6 1986.95 2536.84 1986.77 2537.11 1986.53 2537.41 1986.25 2537.7 1985.97 2538.03 1985.63 2538.39 1985.23L2539.64 1986.42C2539.06 1987.03 2538.52 1987.54 2538.02 1987.98 2537.52 1988.41 2537.04 1988.77 2536.58 1989.05 2536.11 1989.34 2535.65 1989.55 2535.2 1989.68 2534.74 1989.82 2534.26 1989.89 2533.75 1989.89 2533.29 1989.89 2532.88 1989.81 2532.5 1989.64 2532.13 1989.47 2531.81 1989.24 2531.56 1988.94 2531.3 1988.65 2531.09 1988.3 2530.95 1987.9 2530.81 1987.49 2530.73 1987.05 2530.73 1986.57 2530.73 1985.58 2530.94 1984.31 2531.37 1982.76 2531.59 1981.97 2531.8 1981.22 2531.99 1980.51 2532.18 1979.79 2532.34 1979.13 2532.47 1978.52 2532.6 1977.91 2532.71 1977.37 2532.78 1976.89 2532.86 1976.42 2532.9 1976.02 2532.9 1975.71 2532.9 1974.96 2532.76 1974.42 2532.48 1974.07 2532.19 1973.72 2531.75 1973.54 2531.15 1973.54 2530.78 1973.54 2530.38 1973.64 2529.96 1973.83 2529.54 1974.02 2529.11 1974.29 2528.68 1974.64 2528.26 1974.98 2527.84 1975.38 2527.43 1975.85 2527.02 1976.32 2526.64 1976.83 2526.29 1977.38 2525.94 1977.93 2525.63 1978.5 2525.36 1979.11 2525.09 1979.71 2524.88 1980.32 2524.74 1980.93L2522.95 1989.57 2519.42 1989.57C2519.59 1988.8 2519.78 1987.97 2519.99 1987.08 2520.2 1986.2 2520.42 1985.3 2520.63 1984.4 2520.85 1983.5 2521.06 1982.61 2521.26 1981.73 2521.46 1980.85 2521.63 1980.02 2521.79 1979.26 2521.95 1978.5 2522.07 1977.81 2522.17 1977.2 2522.27 1976.59 2522.31 1976.11 2522.31 1975.75 2522.31 1974.99 2522.17 1974.43 2521.87 1974.08 2521.58 1973.72 2521.1 1973.54 2520.45 1973.54 2519.88 1973.54 2519.26 1973.76 2518.59 1974.19 2517.93 1974.63 2517.3 1975.2 2516.71 1975.9 2516.11 1976.6 2515.58 1977.4 2515.11 1978.28 2514.64 1979.17 2514.31 1980.06 2514.11 1980.97L2512.27 1989.57 2508.73 1989.57 2511.44 1977.79C2511.6 1977.14 2511.71 1976.57 2511.78 1976.09 2511.85 1975.61 2511.89 1975.21 2511.89 1974.9 2511.89 1974.02 2511.54 1973.58 2510.82 1973.58 2510.61 1973.58 2510.39 1973.62 2510.17 1973.71 2509.94 1973.8 2509.71 1973.94 2509.46 1974.12 2509.21 1974.3 2508.95 1974.53 2508.66 1974.81 2508.37 1975.08 2508.04 1975.41 2507.68 1975.78L2506.43 1974.61C2507.02 1974.01 2507.57 1973.48 2508.07 1973.05 2508.57 1972.61 2509.05 1972.24 2509.51 1971.96 2509.98 1971.68 2510.43 1971.47 2510.88 1971.33 2511.32 1971.19 2511.79 1971.12 2512.27 1971.12Z" fill-rule="evenodd"/><text fill="#000000" fill-opacity="0" font-family="Arial,Arial_MSFontService,sans-serif" font-size="18.771" x="2506.43" y="1987.55">𝑚𝑎𝑥</text><path d="M2454.2 1929.55 2588.2 1929.55 2588.2 1932.55 2454.2 1932.55Z" fill="#836967" fill-rule="evenodd"/><path d="M2644.9 1915.56 2648.36 1915.56 2648.36 1929.63 2661.67 1929.63 2661.67 1932.87 2648.36 1932.87 2648.36 1946.94 2644.9 1946.94 2644.9 1932.87 2631.59 1932.87 2631.59 1929.63 2644.9 1929.63Z" fill-rule="evenodd"/><text fill="#000000" fill-opacity="0" font-family="Arial,Arial_MSFontService,sans-serif" font-size="31.3721" x="2631.59" y="1943.01">+</text><path d="M2693.13 1921.81C2695.3 1921.81 2697.29 1922.06 2699.12 1922.55L2697.92 1928.06 2695.36 1928.06C2695.32 1926.83 2695.22 1925.93 2695.05 1925.38 2694.88 1924.82 2694.6 1924.41 2694.22 1924.13 2693.84 1923.86 2693.3 1923.72 2692.6 1923.72 2690.95 1923.72 2689.48 1924.37 2688.17 1925.68 2686.86 1926.99 2685.79 1928.85 2684.96 1931.25 2684.13 1933.65 2683.71 1935.96 2683.71 1938.17 2683.71 1939.83 2684.04 1941.06 2684.69 1941.87 2685.34 1942.68 2686.32 1943.08 2687.62 1943.08 2689.1 1943.08 2690.38 1942.8 2691.46 1942.24 2692.54 1941.67 2693.69 1940.79 2694.89 1939.59L2696.38 1941.08C2694.85 1942.77 2693.31 1944.01 2691.76 1944.79 2690.2 1945.57 2688.53 1945.96 2686.74 1945.96 2684.38 1945.96 2682.59 1945.26 2681.37 1943.86 2680.15 1942.46 2679.54 1940.43 2679.54 1937.76 2679.54 1936.01 2679.86 1934.1 2680.51 1932.02 2681.16 1929.94 2682.12 1928.1 2683.37 1926.53 2684.62 1924.95 2686.09 1923.77 2687.76 1922.99 2689.44 1922.2 2691.23 1921.81 2693.13 1921.81Z" fill-rule="evenodd"/><text fill="#000000" fill-opacity="0" font-family="Arial,Arial_MSFontService,sans-serif" font-size="24.1455" x="2679.54" y="1942.94">𝑐</text></g></svg>