<svg width="1583" height="855" xmlns="http://www.w3.org/2000/svg" xmlns:xlink="http://www.w3.org/1999/xlink" xml:space="preserve" overflow="hidden"><defs><clipPath id="clip0"><rect x="1409" y="813" width="1583" height="855"/></clipPath></defs><g clip-path="url(#clip0)" transform="translate(-1409 -813)"><path d="M2007.62 1255.33 2007.72 1038.5 2011.16 1041.94 1879.5 1041.94 1879.5 1035.06 2014.6 1035.06 2014.5 1255.34ZM2024.91 1251.05 2010.56 1278.25 1997.41 1250.45Z" fill="#4472C4"/><path d="M3.4375 3.4375-0.559119 3.4375 2.87838 0 2.87838 236.365-0.559119 232.928 99.7005 232.928 99.7005 239.803-3.99662 239.803-3.99662-3.4375 3.4375-3.4375ZM95.1172 222.615 122.617 236.365 95.1172 250.115Z" fill="#4472C4" transform="matrix(1 0 0 -1 2050.5 1273.87)"/><path d="M1873.51 880.062 2143.75 880.576 2143.74 887.451 1873.49 886.937ZM2139.19 870.255 2166.66 884.057 2139.13 897.755Z" fill="#4472C4"/><path d="M2073.5 984.063 2349.29 984.063 2349.29 990.938 2073.5 990.938ZM2344.71 973.75 2372.21 987.5 2344.71 1001.25Z" fill="#4472C4"/><text font-family="Calibri,Calibri_MSFontService,sans-serif" font-weight="400" font-size="41" transform="matrix(1 0 0 1 2584.49 960)">P</text><text font-family="Calibri,Calibri_MSFontService,sans-serif" font-weight="400" font-size="28" transform="matrix(1 0 0 1 2605.69 969)">Grid</text><text font-family="Calibri,Calibri_MSFontService,sans-serif" font-weight="400" font-size="41" transform="matrix(1 0 0 1 2206.36 959)">P</text><text font-family="Calibri,Calibri_MSFontService,sans-serif" font-weight="400" font-size="28" transform="matrix(1 0 0 1 2227.56 968)">AC</text><text font-family="Calibri,Calibri_MSFontService,sans-serif" font-weight="400" font-size="41" transform="matrix(1 0 0 1 2337.45 1182)">P</text><text font-family="Calibri,Calibri_MSFontService,sans-serif" font-weight="400" font-size="28" transform="matrix(1 0 0 1 2358.64 1191)">L</text><text font-family="Calibri,Calibri_MSFontService,sans-serif" font-weight="700" font-size="41" transform="matrix(1 0 0 1 2005.44 934)">DC</text><text font-family="Calibri,Calibri_MSFontService,sans-serif" font-weight="400" font-size="41" transform="matrix(1 0 0 1 1638.86 966)">P</text><text font-family="Calibri,Calibri_MSFontService,sans-serif" font-weight="400" font-size="28" transform="matrix(1 0 0 1 1660.06 975)">PV</text><rect x="1940.5" y="1534.5" width="174" height="118" stroke="#2F528F" stroke-width="4.58333" stroke-miterlimit="8" fill="#4472C4"/><text fill="#FFFFFF" font-family="Calibri,Calibri_MSFontService,sans-serif" font-weight="700" font-size="41" transform="matrix(1 0 0 1 1990.75 1608)">Batt</text><rect x="1411.5" y="922.5" width="173" height="118" stroke="#787878" stroke-width="4.58333" stroke-miterlimit="8" fill="#A5A5A5"/><text fill="#FFFFFF" font-family="Calibri,Calibri_MSFontService,sans-serif" font-weight="700" font-size="41" transform="matrix(1 0 0 1 1474.51 996)">PV</text><path d="M1585.5 984.063 1966.02 984.063 1966.02 990.938 1585.5 990.938ZM1961.44 973.75 1988.94 987.5 1961.44 1001.25Z" fill="#4472C4"/><rect x="2817.5" y="928.5" width="172" height="118" stroke="#2F528F" stroke-width="4.58333" stroke-miterlimit="8" fill="#4472C4"/><text fill="#FFFFFF" font-family="Calibri,Calibri_MSFontService,sans-serif" font-weight="700" font-size="41" transform="matrix(1 0 0 1 2866.14 1002)">Grid</text><path d="M3.43755 22.9167 3.43781 142.558-3.43719 142.558-3.43745 22.9167ZM-13.7499 27.5 0 0 13.7501 27.5ZM13.7503 137.974 0.000360892 165.474-13.7497 137.974Z" fill="#4472C4" transform="matrix(1 0 0 -1 2027.5 1531.97)"/><text font-family="Calibri,Calibri_MSFontService,sans-serif" font-weight="400" font-size="41" transform="matrix(1 0 0 1 1906.18 1463)">P</text><text font-family="Calibri,Calibri_MSFontService,sans-serif" font-weight="400" font-size="28" transform="matrix(1 0 0 1 1927.38 1472)">Bat</text><path d="M1988.5 1327C1988.5 1304.63 2006.18 1286.5 2028 1286.5 2049.82 1286.5 2067.5 1304.63 2067.5 1327 2067.5 1349.37 2049.82 1367.5 2028 1367.5 2006.18 1367.5 1988.5 1349.37 1988.5 1327Z" stroke="#2F528F" stroke-width="4.58333" stroke-miterlimit="8" fill="#4472C4" fill-rule="evenodd"/><path d="M2411.94 1051.42 2411.94 1315.04 2405.06 1315.04 2405.06 1051.42ZM2394.75 1056 2408.5 1028.5 2422.25 1056Z" fill="#4472C4"/><path d="M2817.44 991.158 2470.41 990.951 2470.42 984.076 2817.45 984.283ZM2474.99 1001.27 2447.5 987.5 2475.01 973.766Z" fill="#4472C4"/><path d="M1988.5 988C1988.5 965.632 2006.18 947.5 2028 947.5 2049.82 947.5 2067.5 965.632 2067.5 988 2067.5 1010.37 2049.82 1028.5 2028 1028.5 2006.18 1028.5 1988.5 1010.37 1988.5 988Z" stroke="#2F528F" stroke-width="4.58333" stroke-miterlimit="8" fill="none" fill-rule="evenodd"/><text font-family="Calibri,Calibri_MSFontService,sans-serif" font-weight="700" font-size="46" transform="matrix(1 0 0 1 2015.78 1004)">+</text><path d="M2368.5 988C2368.5 965.632 2386.18 947.5 2408 947.5 2429.82 947.5 2447.5 965.632 2447.5 988 2447.5 1010.37 2429.82 1028.5 2408 1028.5 2386.18 1028.5 2368.5 1010.37 2368.5 988Z" stroke="#2F528F" stroke-width="4.58333" stroke-miterlimit="8" fill="none" fill-rule="evenodd"/><text font-family="Calibri,Calibri_MSFontService,sans-serif" font-weight="700" font-size="46" transform="matrix(1 0 0 1 2395.44 1003)">+</text><text font-family="Calibri,Calibri_MSFontService,sans-serif" font-weight="700" font-size="41" transform="matrix(1 0 0 1 2385.79 929)">AC</text><text font-family="Calibri,Calibri_MSFontService,sans-serif" font-weight="400" font-size="41" transform="matrix(1 0 0 1 2084.96 1093)">P</text><text font-family="Calibri,Calibri_MSFontService,sans-serif" font-weight="400" font-size="28" transform="matrix(1 0 0 1 2106.15 1102)">Bat2AC,</text><text font-family="Calibri,Calibri_MSFontService,sans-serif" font-weight="400" font-size="28" transform="matrix(1 0 0 1 2194.96 1102)">out</text><text font-family="Calibri,Calibri_MSFontService,sans-serif" font-weight="400" font-size="41" transform="matrix(1 0 0 1 1854.57 1093)">P</text><text font-family="Calibri,Calibri_MSFontService,sans-serif" font-weight="400" font-size="28" transform="matrix(1 0 0 1 1875.77 1102)">PV2Bat,in</text><text font-family="Calibri,Calibri_MSFontService,sans-serif" font-weight="400" font-size="41" transform="matrix(1 0 0 1 1701.2 871)">P</text><text font-family="Calibri,Calibri_MSFontService,sans-serif" font-weight="400" font-size="28" transform="matrix(1 0 0 1 1722.4 880)">PV2AC,in</text><text font-family="Calibri,Calibri_MSFontService,sans-serif" font-weight="400" font-size="41" transform="matrix(1 0 0 1 2174.83 871)">P</text><text font-family="Calibri,Calibri_MSFontService,sans-serif" font-weight="400" font-size="28" transform="matrix(1 0 0 1 2196.03 880)">PV2AC,out</text><text font-family="Calibri,Calibri_MSFontService,sans-serif" font-weight="400" font-size="41" transform="matrix(1 0 0 1 1820.57 1274)">P</text><text font-family="Calibri,Calibri_MSFontService,sans-serif" font-weight="400" font-size="28" transform="matrix(1 0 0 1 1841.77 1283)">PV2Bat,out</text><text font-family="Calibri,Calibri_MSFontService,sans-serif" font-weight="400" font-size="41" transform="matrix(1 0 0 1 2084.96 1274)">P</text><text font-family="Calibri,Calibri_MSFontService,sans-serif" font-weight="400" font-size="28" transform="matrix(1 0 0 1 2106.15 1283)">Bat2AC,</text><text font-family="Calibri,Calibri_MSFontService,sans-serif" font-weight="400" font-size="28" transform="matrix(1 0 0 1 2194.96 1283)">in</text><path d="M2190.01 1518.21C2189.26 1518.21 2188.48 1518.23 2187.66 1518.26L2185.21 1529.21 2187.08 1529.21C2188.54 1529.21 2189.72 1529.06 2190.62 1528.76 2191.51 1528.46 2192.25 1527.99 2192.82 1527.36 2193.39 1526.73 2193.84 1525.98 2194.15 1525.11 2194.46 1524.24 2194.62 1523.29 2194.62 1522.26 2194.62 1520.86 2194.26 1519.84 2193.55 1519.19 2192.84 1518.53 2191.66 1518.21 2190.01 1518.21ZM2182.44 1516.62 2190.41 1516.62C2191.84 1516.62 2193.02 1516.73 2193.94 1516.95 2194.86 1517.18 2195.62 1517.52 2196.22 1517.98 2196.81 1518.45 2197.26 1519.03 2197.55 1519.75 2197.85 1520.46 2198 1521.28 2198 1522.22 2198 1524.03 2197.57 1525.59 2196.71 1526.92 2195.86 1528.24 2194.7 1529.22 2193.24 1529.84 2191.77 1530.47 2190.02 1530.78 2187.97 1530.78 2186.74 1530.78 2185.72 1530.76 2184.9 1530.71L2183.74 1536.02C2183.63 1536.52 2183.56 1536.9 2183.52 1537.16 2183.47 1537.43 2183.44 1537.71 2183.41 1538.02 2183.38 1538.33 2183.36 1538.6 2183.36 1538.84 2183.36 1539.21 2183.42 1539.51 2183.54 1539.72 2183.66 1539.93 2183.84 1540.08 2184.09 1540.18 2184.33 1540.27 2184.74 1540.35 2185.33 1540.4L2185.13 1541.28 2177.71 1541.28 2177.91 1540.4C2178.36 1540.32 2178.71 1540.21 2178.94 1540.04 2179.17 1539.88 2179.36 1539.65 2179.52 1539.37 2179.67 1539.08 2179.82 1538.72 2179.95 1538.31 2180.08 1537.89 2180.28 1537.09 2180.54 1535.9L2183.62 1521.99C2183.88 1520.78 2184.01 1519.83 2184.01 1519.13 2184.01 1518.54 2183.88 1518.13 2183.6 1517.9 2183.32 1517.67 2182.87 1517.54 2182.24 1517.51Z" fill-rule="evenodd"/><text fill="#000000" fill-opacity="0" font-family="Arial,Arial_MSFontService,sans-serif" font-size="24.6606" x="2177.71" y="1538.2">洧녞</text><path d="M2252.13 1540.61 2250.62 1547.38C2250.83 1547.39 2251.1 1547.39 2251.42 1547.4 2251.74 1547.41 2252.12 1547.42 2252.56 1547.42 2253.51 1547.42 2254.33 1547.34 2255.02 1547.17 2255.71 1547.01 2256.28 1546.76 2256.73 1546.41 2257.19 1546.06 2257.52 1545.61 2257.74 1545.06 2257.95 1544.5 2258.06 1543.84 2258.06 1543.07 2258.06 1542.66 2258 1542.31 2257.87 1542 2257.75 1541.69 2257.55 1541.43 2257.26 1541.23 2256.98 1541.02 2256.61 1540.87 2256.17 1540.77 2255.72 1540.66 2255.18 1540.61 2254.54 1540.61ZM2272.95 1536.62C2272.43 1536.62 2271.95 1536.73 2271.5 1536.96 2271.05 1537.19 2270.64 1537.5 2270.27 1537.9 2269.9 1538.29 2269.58 1538.75 2269.29 1539.27 2269 1539.79 2268.76 1540.34 2268.56 1540.92 2268.37 1541.5 2268.22 1542.09 2268.12 1542.7 2268.02 1543.31 2267.96 1543.9 2267.96 1544.46 2267.96 1545.41 2268.1 1546.12 2268.37 1546.58 2268.63 1547.04 2269.07 1547.27 2269.67 1547.27 2269.96 1547.27 2270.25 1547.22 2270.53 1547.11 2270.81 1547.01 2271.1 1546.84 2271.41 1546.61 2272.18 1546.01 2272.84 1545.27 2273.38 1544.4 2273.93 1543.53 2274.34 1542.5 2274.61 1541.31 2274.73 1540.77 2274.83 1540.28 2274.9 1539.84 2274.97 1539.4 2275 1538.98 2275 1538.58 2275 1537.88 2274.84 1537.38 2274.51 1537.07 2274.18 1536.77 2273.66 1536.62 2272.95 1536.62ZM2272.71 1535.31C2273.41 1535.31 2274.02 1535.4 2274.55 1535.56 2275.08 1535.72 2275.57 1535.94 2276.01 1536.22L2277.29 1535.31 2278.35 1535.59 2276.36 1544.23C2276.25 1544.72 2276.17 1545.12 2276.13 1545.45 2276.08 1545.77 2276.06 1546.05 2276.06 1546.3 2276.06 1546.63 2276.13 1546.87 2276.26 1547.02 2276.4 1547.17 2276.6 1547.24 2276.85 1547.24 2277.01 1547.24 2277.16 1547.21 2277.32 1547.15 2277.47 1547.09 2277.64 1546.99 2277.82 1546.86 2278 1546.73 2278.2 1546.56 2278.41 1546.36 2278.63 1546.15 2278.87 1545.9 2279.14 1545.61 2279.28 1545.76 2279.43 1545.91 2279.58 1546.05 2279.73 1546.2 2279.87 1546.34 2280.01 1546.48 2279.57 1546.93 2279.18 1547.31 2278.81 1547.63 2278.45 1547.95 2278.1 1548.22 2277.77 1548.42 2277.43 1548.63 2277.1 1548.78 2276.77 1548.87 2276.45 1548.97 2276.11 1549.01 2275.76 1549.01 2275.12 1549.01 2274.63 1548.81 2274.28 1548.4 2273.93 1547.99 2273.75 1547.43 2273.75 1546.72 2273.75 1546.32 2273.81 1545.94 2273.94 1545.58L2273.75 1545.5C2273.3 1546.13 2272.87 1546.66 2272.45 1547.1 2272.03 1547.54 2271.61 1547.9 2271.19 1548.19 2270.78 1548.47 2270.36 1548.68 2269.94 1548.81 2269.52 1548.95 2269.08 1549.01 2268.62 1549.01 2267.58 1549.01 2266.77 1548.64 2266.2 1547.88 2265.63 1547.13 2265.34 1546.04 2265.34 1544.61 2265.34 1543.76 2265.43 1542.94 2265.61 1542.15 2265.79 1541.36 2266.05 1540.62 2266.38 1539.93 2266.71 1539.24 2267.1 1538.62 2267.56 1538.05 2268.01 1537.48 2268.51 1537 2269.06 1536.59 2269.6 1536.19 2270.18 1535.87 2270.8 1535.65 2271.41 1535.43 2272.05 1535.31 2272.71 1535.31ZM2205.59 1533.07C2205.28 1533.07 2204.97 1533.08 2204.68 1533.09 2204.39 1533.09 2204.11 1533.11 2203.83 1533.13L2202.15 1540.26 2203.74 1540.26C2204.76 1540.28 2205.62 1540.17 2206.29 1539.95 2206.97 1539.73 2207.51 1539.42 2207.92 1539.02 2208.33 1538.61 2208.62 1538.14 2208.78 1537.59 2208.95 1537.05 2209.03 1536.46 2209.03 1535.81 2209.03 1534.86 2208.76 1534.16 2208.2 1533.73 2207.65 1533.29 2206.78 1533.07 2205.59 1533.07ZM2256.11 1533.05C2255.69 1533.05 2255.28 1533.05 2254.9 1533.07 2254.52 1533.08 2254.15 1533.1 2253.8 1533.14L2252.44 1539.24 2254.49 1539.24C2255.44 1539.24 2256.26 1539.15 2256.92 1538.97 2257.58 1538.79 2258.12 1538.54 2258.53 1538.2 2258.95 1537.87 2259.25 1537.46 2259.44 1536.99 2259.63 1536.52 2259.72 1535.99 2259.72 1535.41 2259.7 1535.03 2259.63 1534.69 2259.5 1534.39 2259.36 1534.09 2259.16 1533.84 2258.87 1533.65 2258.58 1533.45 2258.22 1533.3 2257.76 1533.2 2257.31 1533.1 2256.76 1533.05 2256.11 1533.05ZM2286.32 1532.24 2288.38 1532.24 2287.63 1535.59 2292.11 1535.59 2291.81 1537.05 2287.34 1537.05 2285.99 1542.58C2285.91 1542.95 2285.83 1543.28 2285.78 1543.57 2285.72 1543.87 2285.67 1544.13 2285.64 1544.37 2285.6 1544.61 2285.58 1544.82 2285.56 1545.02 2285.55 1545.21 2285.54 1545.39 2285.54 1545.56 2285.54 1546.08 2285.65 1546.5 2285.87 1546.8 2286.09 1547.1 2286.45 1547.24 2286.96 1547.24 2287.38 1547.24 2287.83 1547.09 2288.3 1546.78 2288.77 1546.46 2289.32 1545.97 2289.92 1545.31L2290.83 1546.23C2290.38 1546.73 2289.96 1547.16 2289.55 1547.51 2289.15 1547.86 2288.75 1548.15 2288.37 1548.37 2287.98 1548.6 2287.6 1548.76 2287.22 1548.86 2286.84 1548.96 2286.45 1549.01 2286.06 1549.01 2285.01 1549.01 2284.23 1548.77 2283.72 1548.27 2283.2 1547.78 2282.95 1547.06 2282.95 1546.1 2282.95 1545.77 2282.97 1545.41 2283.02 1545.02 2283.07 1544.63 2283.14 1544.25 2283.22 1543.88L2284.79 1537.05 2282.53 1537.05 2282.79 1536.04C2283.32 1536.04 2283.73 1535.99 2284.02 1535.89 2284.32 1535.79 2284.56 1535.65 2284.77 1535.47 2284.9 1535.35 2285.03 1535.2 2285.15 1535.02 2285.27 1534.84 2285.4 1534.62 2285.52 1534.36 2285.64 1534.11 2285.77 1533.81 2285.89 1533.46 2286.02 1533.11 2286.16 1532.71 2286.32 1532.24ZM2237.52 1531.7C2238.44 1531.7 2239.22 1531.8 2239.86 1532.01 2240.51 1532.22 2241.04 1532.5 2241.44 1532.85 2241.84 1533.2 2242.14 1533.62 2242.32 1534.11 2242.5 1534.61 2242.59 1535.14 2242.59 1535.71 2242.59 1536.05 2242.56 1536.37 2242.51 1536.67 2242.47 1536.96 2242.38 1537.25 2242.26 1537.54 2242.15 1537.82 2241.99 1538.11 2241.8 1538.4 2241.6 1538.69 2241.36 1539 2241.07 1539.32 2240.85 1539.6 2240.57 1539.93 2240.21 1540.3 2239.86 1540.67 2239.48 1541.06 2239.06 1541.48 2238.64 1541.91 2238.21 1542.35 2237.75 1542.8 2237.29 1543.26 2236.85 1543.71 2236.42 1544.16 2235.99 1544.61 2235.59 1545.04 2235.23 1545.47 2234.87 1545.89 2234.58 1546.27 2234.35 1546.63L2239.22 1546.63C2239.64 1546.63 2239.97 1546.61 2240.21 1546.58 2240.46 1546.55 2240.66 1546.48 2240.83 1546.37 2240.99 1546.27 2241.13 1546.11 2241.24 1545.89 2241.36 1545.68 2241.49 1545.38 2241.64 1545L2242.86 1545C2242.82 1545.63 2242.78 1546.26 2242.74 1546.89 2242.7 1547.52 2242.66 1548.15 2242.61 1548.77L2231.45 1548.77 2231.45 1548.09C2231.66 1547.61 2231.9 1547.15 2232.18 1546.68 2232.47 1546.22 2232.78 1545.76 2233.13 1545.28 2233.49 1544.81 2233.89 1544.32 2234.33 1543.81 2234.78 1543.31 2235.28 1542.78 2235.82 1542.24 2236.65 1541.41 2237.32 1540.7 2237.84 1540.12 2238.36 1539.53 2238.77 1539.01 2239.07 1538.56 2239.37 1538.1 2239.57 1537.68 2239.68 1537.29 2239.79 1536.9 2239.84 1536.49 2239.84 1536.05 2239.84 1535.6 2239.78 1535.19 2239.65 1534.81 2239.53 1534.43 2239.34 1534.11 2239.11 1533.85 2238.87 1533.59 2238.57 1533.38 2238.2 1533.23 2237.84 1533.08 2237.42 1533.01 2236.94 1533.01 2236.13 1533.01 2235.44 1533.23 2234.89 1533.67 2234.33 1534.12 2233.9 1534.76 2233.6 1535.6L2231.87 1535.6 2231.87 1533.03C2232.99 1532.57 2234.03 1532.23 2234.97 1532.02 2235.92 1531.81 2236.77 1531.7 2237.52 1531.7ZM2249.78 1531.68 2256.69 1531.68C2257.72 1531.68 2258.59 1531.76 2259.31 1531.93 2260.02 1532.09 2260.61 1532.33 2261.07 1532.65 2261.53 1532.97 2261.87 1533.35 2262.07 1533.79 2262.28 1534.23 2262.38 1534.74 2262.38 1535.31 2262.38 1537.48 2261.03 1539 2258.31 1539.89 2258.31 1539.93 2258.31 1539.97 2258.3 1539.99 2258.3 1540.02 2258.3 1540.04 2258.3 1540.06 2259.11 1540.39 2259.73 1540.83 2260.16 1541.4 2260.58 1541.98 2260.79 1542.64 2260.79 1543.38 2260.79 1544.23 2260.63 1544.98 2260.32 1545.64 2260.01 1546.31 2259.53 1546.87 2258.88 1547.33 2258.23 1547.79 2257.39 1548.15 2256.37 1548.4 2255.35 1548.65 2254.13 1548.77 2252.71 1548.77L2246.52 1548.77 2246.67 1547.97C2246.94 1547.93 2247.16 1547.88 2247.33 1547.82 2247.51 1547.76 2247.66 1547.64 2247.8 1547.45 2247.93 1547.26 2248.06 1546.98 2248.17 1546.6 2248.29 1546.22 2248.42 1545.68 2248.57 1544.99L2250.73 1535.38C2250.82 1534.99 2250.88 1534.65 2250.93 1534.35 2250.97 1534.05 2250.99 1533.81 2250.99 1533.61 2250.99 1533.22 2250.89 1532.94 2250.7 1532.77 2250.5 1532.6 2250.13 1532.51 2249.58 1532.51ZM2214 1531.68 2219.76 1531.68 2219.56 1532.51C2219.27 1532.53 2219.03 1532.59 2218.84 1532.68 2218.64 1532.77 2218.49 1532.89 2218.38 1533.05 2218.27 1533.22 2218.2 1533.42 2218.15 1533.67 2218.11 1533.92 2218.09 1534.23 2218.09 1534.59 2218.09 1534.69 2218.09 1534.84 2218.1 1535.03 2218.11 1535.22 2218.12 1535.47 2218.14 1535.79 2218.19 1536.67 2218.25 1537.56 2218.3 1538.48 2218.36 1539.39 2218.41 1540.28 2218.47 1541.14 2218.52 1542 2218.57 1542.82 2218.61 1543.6 2218.65 1544.38 2218.67 1545.07 2218.67 1545.66L2218.8 1545.66 2224.12 1536.75C2224.39 1536.32 2224.6 1535.95 2224.77 1535.63 2224.94 1535.31 2225.07 1535.04 2225.16 1534.8 2225.26 1534.56 2225.33 1534.35 2225.37 1534.16 2225.41 1533.97 2225.43 1533.78 2225.43 1533.59 2225.43 1532.93 2224.96 1532.57 2224.03 1532.51L2224.2 1531.68 2229.96 1531.68 2229.81 1532.51C2229.61 1532.53 2229.43 1532.57 2229.27 1532.61 2229.11 1532.66 2228.93 1532.77 2228.74 1532.95 2228.54 1533.13 2228.32 1533.4 2228.06 1533.75 2227.8 1534.11 2227.47 1534.6 2227.08 1535.23L2218.59 1549.02 2216.66 1549.02C2216.47 1546.69 2216.28 1544.36 2216.09 1542.06 2215.9 1539.75 2215.71 1537.41 2215.53 1535.05 2215.49 1534.64 2215.44 1534.28 2215.38 1533.98 2215.31 1533.68 2215.21 1533.43 2215.07 1533.22 2214.94 1533.01 2214.77 1532.84 2214.57 1532.73 2214.37 1532.62 2214.12 1532.54 2213.81 1532.51ZM2199.78 1531.68 2205.74 1531.68C2206.69 1531.68 2207.53 1531.75 2208.26 1531.89 2209 1532.04 2209.62 1532.27 2210.12 1532.59 2210.63 1532.91 2211.01 1533.33 2211.28 1533.84 2211.54 1534.36 2211.68 1534.99 2211.7 1535.74 2211.7 1536.71 2211.52 1537.57 2211.15 1538.31 2210.79 1539.06 2210.27 1539.67 2209.61 1540.17 2208.96 1540.66 2208.16 1541.03 2207.24 1541.28 2206.32 1541.53 2205.3 1541.65 2204.18 1541.64 2203.7 1541.64 2203.26 1541.64 2202.88 1541.63 2202.49 1541.62 2202.17 1541.61 2201.9 1541.59 2201.81 1542.05 2201.7 1542.54 2201.57 1543.08 2201.45 1543.62 2201.34 1544.13 2201.23 1544.63 2201.12 1545.12 2201.04 1545.58 2200.97 1545.99 2200.9 1546.39 2200.86 1546.7 2200.86 1546.9 2200.86 1547.08 2200.89 1547.23 2200.93 1547.36 2200.98 1547.48 2201.06 1547.59 2201.17 1547.68 2201.28 1547.77 2201.44 1547.83 2201.64 1547.88 2201.84 1547.92 2202.1 1547.95 2202.42 1547.97L2202.23 1548.77 2196.52 1548.77 2196.67 1547.97C2196.94 1547.93 2197.17 1547.87 2197.34 1547.81 2197.52 1547.74 2197.67 1547.61 2197.81 1547.42 2197.95 1547.23 2198.07 1546.95 2198.18 1546.57 2198.29 1546.19 2198.42 1545.67 2198.57 1544.99L2200.73 1535.38C2200.82 1534.99 2200.88 1534.65 2200.93 1534.35 2200.97 1534.05 2200.99 1533.81 2200.99 1533.61 2200.99 1533.22 2200.89 1532.94 2200.7 1532.77 2200.5 1532.6 2200.13 1532.51 2199.58 1532.51Z" fill-rule="evenodd"/><text fill="#000000" fill-opacity="0" font-family="Arial,Arial_MSFontService,sans-serif" font-size="17.3496" x="2196.52" y="1546.86">洧녞洧녤2洧냣洧녩洧노</text><path d="M2294.95 1545.72 2297.26 1545.72C2297.38 1546.33 2297.45 1546.94 2297.45 1547.54 2297.45 1548.15 2297.34 1548.71 2297.13 1549.22 2296.92 1549.73 2296.58 1550.24 2296.12 1550.75 2295.66 1551.25 2295.02 1551.81 2294.22 1552.41L2293.5 1551.61C2293.95 1551.19 2294.28 1550.81 2294.48 1550.47 2294.68 1550.13 2294.83 1549.75 2294.91 1549.31 2295 1548.88 2295.05 1548.34 2295.05 1547.69 2295.05 1547.03 2295.02 1546.37 2294.95 1545.72Z" fill-rule="evenodd"/><text fill="#000000" fill-opacity="0" font-family="Arial,Arial_MSFontService,sans-serif" font-size="6.69727" x="2293.5" y="1551.58">,</text><path d="M2308.11 1536.62C2307.61 1536.62 2307.15 1536.73 2306.72 1536.95 2306.29 1537.17 2305.89 1537.47 2305.53 1537.86 2305.17 1538.24 2304.85 1538.7 2304.57 1539.23 2304.28 1539.76 2304.04 1540.32 2303.84 1540.93 2303.64 1541.54 2303.49 1542.17 2303.39 1542.83 2303.28 1543.49 2303.23 1544.15 2303.23 1544.81 2303.23 1545.82 2303.44 1546.56 2303.85 1547.04 2304.27 1547.52 2304.91 1547.76 2305.76 1547.76 2306.23 1547.76 2306.68 1547.64 2307.1 1547.41 2307.53 1547.18 2307.91 1546.86 2308.26 1546.47 2308.61 1546.07 2308.93 1545.61 2309.21 1545.08 2309.48 1544.54 2309.72 1543.98 2309.91 1543.37 2310.1 1542.76 2310.25 1542.14 2310.35 1541.49 2310.45 1540.84 2310.5 1540.21 2310.5 1539.6 2310.5 1538.62 2310.31 1537.88 2309.92 1537.38 2309.54 1536.87 2308.93 1536.62 2308.11 1536.62ZM2319.78 1535.31C2320.41 1535.31 2320.92 1535.53 2321.3 1535.95 2321.68 1536.38 2321.86 1536.95 2321.86 1537.66 2321.86 1538.05 2321.83 1538.48 2321.76 1538.95 2321.69 1539.43 2321.57 1539.96 2321.4 1540.55 2321.07 1541.75 2320.8 1542.81 2320.61 1543.71 2320.42 1544.62 2320.32 1545.28 2320.32 1545.7 2320.32 1546.23 2320.42 1546.62 2320.63 1546.88 2320.84 1547.14 2321.17 1547.27 2321.63 1547.27 2322.04 1547.27 2322.48 1547.12 2322.95 1546.81 2323.42 1546.5 2323.87 1546.1 2324.3 1545.62 2324.73 1545.13 2325.12 1544.58 2325.46 1543.98 2325.79 1543.38 2326.04 1542.78 2326.2 1542.2L2327.65 1535.59 2330.25 1535.59 2328.22 1544.2C2328.11 1544.65 2328.04 1545.05 2327.99 1545.4 2327.95 1545.75 2327.93 1546.05 2327.93 1546.3 2327.93 1546.63 2327.99 1546.87 2328.11 1547.02 2328.24 1547.17 2328.43 1547.24 2328.71 1547.24 2328.87 1547.24 2329.04 1547.21 2329.19 1547.15 2329.35 1547.09 2329.52 1546.99 2329.7 1546.86 2329.88 1546.73 2330.08 1546.56 2330.29 1546.36 2330.5 1546.15 2330.74 1545.9 2331 1545.61L2331.91 1546.48C2331.47 1546.93 2331.07 1547.31 2330.7 1547.63 2330.33 1547.95 2329.98 1548.22 2329.64 1548.42 2329.31 1548.63 2328.98 1548.78 2328.65 1548.87 2328.32 1548.97 2327.98 1549.01 2327.63 1549.01 2326.99 1549.01 2326.5 1548.81 2326.14 1548.4 2325.79 1547.99 2325.61 1547.43 2325.61 1546.72 2325.61 1546.53 2325.62 1546.35 2325.65 1546.16 2325.67 1545.97 2325.72 1545.79 2325.79 1545.61L2325.63 1545.56C2324.76 1546.71 2323.92 1547.57 2323.1 1548.15 2322.27 1548.72 2321.42 1549.01 2320.53 1549.01 2319.6 1549.01 2318.9 1548.77 2318.43 1548.27 2317.96 1547.78 2317.72 1547.07 2317.72 1546.15 2317.72 1545.91 2317.77 1545.58 2317.85 1545.16 2317.93 1544.74 2318.04 1544.27 2318.16 1543.75 2318.28 1543.23 2318.41 1542.69 2318.55 1542.12 2318.7 1541.56 2318.83 1541.01 2318.95 1540.49 2319.07 1539.97 2319.18 1539.49 2319.26 1539.06 2319.34 1538.64 2319.39 1538.31 2319.39 1538.07 2319.39 1537.43 2319.12 1537.11 2318.59 1537.11 2318.43 1537.11 2318.26 1537.14 2318.11 1537.21 2317.95 1537.27 2317.78 1537.37 2317.6 1537.5 2317.42 1537.63 2317.22 1537.8 2317.01 1538 2316.8 1538.21 2316.56 1538.44 2316.3 1538.72L2315.4 1537.86C2315.88 1537.38 2316.3 1536.98 2316.68 1536.66 2317.05 1536.33 2317.4 1536.07 2317.74 1535.87 2318.07 1535.68 2318.4 1535.53 2318.73 1535.45 2319.05 1535.36 2319.4 1535.31 2319.78 1535.31ZM2308.36 1535.31C2309.15 1535.31 2309.84 1535.44 2310.43 1535.7 2311.03 1535.95 2311.52 1536.3 2311.92 1536.73 2312.31 1537.17 2312.61 1537.68 2312.81 1538.27 2313 1538.86 2313.1 1539.48 2313.1 1540.15 2313.1 1541.49 2312.9 1542.7 2312.51 1543.78 2312.11 1544.87 2311.57 1545.8 2310.87 1546.58 2310.17 1547.36 2309.35 1547.96 2308.4 1548.38 2307.46 1548.8 2306.43 1549.01 2305.32 1549.01 2304.59 1549.01 2303.94 1548.9 2303.36 1548.68 2302.78 1548.46 2302.29 1548.15 2301.88 1547.73 2301.48 1547.32 2301.17 1546.82 2300.95 1546.24 2300.74 1545.65 2300.63 1544.99 2300.63 1544.25 2300.63 1543 2300.83 1541.84 2301.22 1540.75 2301.61 1539.67 2302.15 1538.72 2302.84 1537.92 2303.53 1537.11 2304.34 1536.48 2305.28 1536.01 2306.22 1535.55 2307.25 1535.31 2308.36 1535.31ZM2337.59 1532.24 2339.64 1532.24 2338.89 1535.59 2343.37 1535.59 2343.07 1537.05 2338.6 1537.05 2337.26 1542.58C2337.17 1542.95 2337.1 1543.28 2337.04 1543.57 2336.98 1543.87 2336.93 1544.13 2336.9 1544.37 2336.86 1544.61 2336.84 1544.82 2336.83 1545.02 2336.81 1545.21 2336.81 1545.39 2336.81 1545.56 2336.81 1546.08 2336.92 1546.5 2337.14 1546.8 2337.36 1547.1 2337.72 1547.24 2338.22 1547.24 2338.64 1547.24 2339.09 1547.09 2339.56 1546.78 2340.04 1546.46 2340.58 1545.97 2341.18 1545.31L2342.09 1546.23C2341.65 1546.73 2341.22 1547.16 2340.82 1547.51 2340.41 1547.86 2340.02 1548.15 2339.63 1548.37 2339.24 1548.6 2338.86 1548.76 2338.48 1548.86 2338.1 1548.96 2337.72 1549.01 2337.32 1549.01 2336.28 1549.01 2335.5 1548.77 2334.98 1548.27 2334.47 1547.78 2334.21 1547.06 2334.21 1546.1 2334.21 1545.77 2334.23 1545.41 2334.28 1545.02 2334.33 1544.63 2334.4 1544.25 2334.49 1543.88L2336.06 1537.05 2333.79 1537.05 2334.05 1536.04C2334.58 1536.04 2334.99 1535.99 2335.28 1535.89 2335.58 1535.79 2335.83 1535.65 2336.03 1535.47 2336.16 1535.35 2336.29 1535.2 2336.41 1535.02 2336.53 1534.84 2336.66 1534.62 2336.78 1534.36 2336.9 1534.11 2337.03 1533.81 2337.16 1533.46 2337.28 1533.11 2337.43 1532.71 2337.59 1532.24Z" fill-rule="evenodd"/><text fill="#000000" fill-opacity="0" font-family="Arial,Arial_MSFontService,sans-serif" font-size="16.7695" x="2300.63" y="1546.92">洧녶洧녹洧노</text><path d="M2359.27 1533.26 2381.52 1533.26 2381.52 1535.66 2359.27 1535.66ZM2359.27 1525.76 2381.52 1525.76 2381.52 1528.16 2359.27 1528.16Z" fill-rule="evenodd"/><text fill="#000000" fill-opacity="0" font-family="Arial,Arial_MSFontService,sans-serif" font-size="9.90039" x="2359.27" y="1534.42">=</text><path d="M2432.74 1490.46C2432 1490.46 2431.22 1490.48 2430.4 1490.51L2427.94 1501.46 2429.82 1501.46C2431.28 1501.46 2432.45 1501.31 2433.35 1501.01 2434.25 1500.71 2434.98 1500.24 2435.55 1499.61 2436.13 1498.98 2436.57 1498.23 2436.88 1497.36 2437.2 1496.49 2437.35 1495.54 2437.35 1494.5 2437.35 1493.11 2437 1492.08 2436.29 1491.43 2435.58 1490.78 2434.4 1490.46 2432.74 1490.46ZM2425.18 1488.87 2433.14 1488.87C2434.58 1488.87 2435.75 1488.98 2436.67 1489.2 2437.6 1489.42 2438.35 1489.77 2438.95 1490.23 2439.55 1490.7 2439.99 1491.28 2440.29 1491.99 2440.58 1492.7 2440.73 1493.53 2440.73 1494.47 2440.73 1496.28 2440.3 1497.84 2439.45 1499.17 2438.59 1500.49 2437.43 1501.47 2435.97 1502.09 2434.51 1502.72 2432.75 1503.03 2430.7 1503.03 2429.47 1503.03 2428.45 1503.01 2427.63 1502.96L2426.48 1508.27C2426.37 1508.76 2426.29 1509.14 2426.25 1509.41 2426.21 1509.67 2426.17 1509.96 2426.14 1510.27 2426.11 1510.57 2426.1 1510.85 2426.1 1511.09 2426.1 1511.46 2426.16 1511.75 2426.28 1511.97 2426.4 1512.18 2426.58 1512.33 2426.82 1512.43 2427.06 1512.52 2427.48 1512.59 2428.07 1512.64L2427.87 1513.53 2420.44 1513.53 2420.64 1512.64C2421.1 1512.57 2421.44 1512.45 2421.67 1512.29 2421.9 1512.13 2422.09 1511.9 2422.25 1511.61 2422.4 1511.32 2422.55 1510.97 2422.68 1510.56 2422.81 1510.14 2423.01 1509.34 2423.28 1508.14L2426.35 1494.23C2426.61 1493.03 2426.75 1492.08 2426.75 1491.38 2426.75 1490.79 2426.61 1490.38 2426.33 1490.15 2426.05 1489.92 2425.6 1489.79 2424.98 1489.75Z" fill-rule="evenodd"/><text fill="#000000" fill-opacity="0" font-family="Arial,Arial_MSFontService,sans-serif" font-size="24.6606" x="2420.44" y="1510.45">洧녞</text><path d="M2444.86 1512.86 2443.36 1519.62C2443.57 1519.63 2443.83 1519.64 2444.15 1519.65 2444.48 1519.66 2444.86 1519.66 2445.3 1519.66 2446.24 1519.66 2447.06 1519.58 2447.75 1519.42 2448.44 1519.26 2449.02 1519 2449.47 1518.66 2449.92 1518.31 2450.25 1517.86 2450.47 1517.3 2450.69 1516.75 2450.79 1516.09 2450.79 1515.31 2450.79 1514.91 2450.73 1514.55 2450.61 1514.25 2450.49 1513.94 2450.28 1513.68 2450 1513.47 2449.71 1513.27 2449.34 1513.11 2448.9 1513.01 2448.46 1512.91 2447.91 1512.86 2447.27 1512.86ZM2465.68 1508.87C2465.16 1508.87 2464.68 1508.98 2464.23 1509.21 2463.78 1509.44 2463.37 1509.75 2463.01 1510.15 2462.64 1510.54 2462.31 1511 2462.02 1511.52 2461.74 1512.04 2461.5 1512.58 2461.3 1513.16 2461.1 1513.74 2460.95 1514.34 2460.85 1514.95 2460.75 1515.56 2460.7 1516.15 2460.7 1516.71 2460.7 1517.66 2460.83 1518.37 2461.1 1518.83 2461.37 1519.29 2461.8 1519.52 2462.4 1519.52 2462.7 1519.52 2462.99 1519.47 2463.26 1519.36 2463.54 1519.26 2463.83 1519.09 2464.14 1518.86 2464.91 1518.25 2465.57 1517.52 2466.12 1516.65 2466.66 1515.78 2467.07 1514.75 2467.34 1513.56 2467.47 1513.02 2467.56 1512.52 2467.63 1512.08 2467.7 1511.64 2467.74 1511.23 2467.74 1510.83 2467.74 1510.13 2467.57 1509.62 2467.24 1509.32 2466.91 1509.02 2466.39 1508.87 2465.68 1508.87ZM2465.44 1507.56C2466.14 1507.56 2466.75 1507.64 2467.28 1507.81 2467.81 1507.97 2468.3 1508.19 2468.74 1508.47L2470.02 1507.56 2471.09 1507.84 2469.1 1516.47C2468.98 1516.97 2468.9 1517.37 2468.86 1517.69 2468.81 1518.01 2468.79 1518.3 2468.79 1518.54 2468.79 1518.88 2468.86 1519.12 2469 1519.27 2469.13 1519.42 2469.33 1519.49 2469.58 1519.49 2469.74 1519.49 2469.9 1519.46 2470.05 1519.4 2470.21 1519.34 2470.37 1519.24 2470.55 1519.11 2470.73 1518.98 2470.93 1518.81 2471.15 1518.6 2471.36 1518.4 2471.61 1518.15 2471.88 1517.86 2472.02 1518.01 2472.16 1518.15 2472.31 1518.3 2472.46 1518.44 2472.61 1518.59 2472.75 1518.73 2472.31 1519.18 2471.91 1519.56 2471.55 1519.88 2471.19 1520.2 2470.84 1520.47 2470.5 1520.67 2470.16 1520.88 2469.83 1521.03 2469.5 1521.12 2469.18 1521.21 2468.84 1521.26 2468.49 1521.26 2467.86 1521.26 2467.36 1521.06 2467.01 1520.65 2466.66 1520.24 2466.49 1519.68 2466.49 1518.97 2466.49 1518.57 2466.55 1518.19 2466.67 1517.83L2466.49 1517.75C2466.04 1518.38 2465.6 1518.91 2465.18 1519.35 2464.76 1519.79 2464.34 1520.15 2463.93 1520.44 2463.51 1520.72 2463.1 1520.93 2462.68 1521.06 2462.25 1521.19 2461.81 1521.26 2461.36 1521.26 2460.31 1521.26 2459.5 1520.88 2458.93 1520.13 2458.36 1519.38 2458.07 1518.29 2458.07 1516.86 2458.07 1516 2458.16 1515.18 2458.34 1514.4 2458.52 1513.61 2458.78 1512.87 2459.11 1512.18 2459.44 1511.49 2459.83 1510.86 2460.29 1510.3 2460.75 1509.73 2461.25 1509.24 2461.79 1508.84 2462.34 1508.44 2462.92 1508.12 2463.53 1507.9 2464.15 1507.67 2464.78 1507.56 2465.44 1507.56ZM2448.84 1505.29C2448.42 1505.29 2448.02 1505.3 2447.64 1505.31 2447.25 1505.33 2446.89 1505.35 2446.53 1505.39L2445.18 1511.49 2447.22 1511.49C2448.18 1511.49 2448.99 1511.4 2449.65 1511.22 2450.32 1511.04 2450.85 1510.78 2451.27 1510.45 2451.68 1510.11 2451.98 1509.71 2452.17 1509.24 2452.36 1508.77 2452.45 1508.24 2452.45 1507.65 2452.44 1507.28 2452.36 1506.94 2452.23 1506.64 2452.1 1506.34 2451.89 1506.09 2451.6 1505.89 2451.32 1505.7 2450.95 1505.55 2450.5 1505.45 2450.04 1505.34 2449.49 1505.29 2448.84 1505.29ZM2479.06 1504.49 2481.11 1504.49 2480.36 1507.84 2484.84 1507.84 2484.54 1509.3 2480.07 1509.3 2478.73 1514.83C2478.64 1515.2 2478.57 1515.53 2478.51 1515.82 2478.45 1516.12 2478.41 1516.38 2478.37 1516.62 2478.34 1516.86 2478.31 1517.07 2478.3 1517.26 2478.28 1517.46 2478.28 1517.64 2478.28 1517.81 2478.28 1518.33 2478.39 1518.75 2478.61 1519.04 2478.83 1519.34 2479.19 1519.49 2479.69 1519.49 2480.11 1519.49 2480.56 1519.34 2481.03 1519.02 2481.51 1518.71 2482.05 1518.22 2482.66 1517.55L2483.56 1518.48C2483.12 1518.98 2482.69 1519.41 2482.29 1519.76 2481.88 1520.11 2481.49 1520.4 2481.1 1520.62 2480.71 1520.84 2480.33 1521.01 2479.95 1521.11 2479.57 1521.21 2479.19 1521.26 2478.79 1521.26 2477.75 1521.26 2476.97 1521.01 2476.45 1520.52 2475.94 1520.03 2475.68 1519.3 2475.68 1518.35 2475.68 1518.02 2475.71 1517.66 2475.75 1517.27 2475.8 1516.88 2475.87 1516.5 2475.96 1516.13L2477.53 1509.3 2475.26 1509.3 2475.52 1508.29C2476.05 1508.29 2476.46 1508.24 2476.76 1508.14 2477.05 1508.03 2477.3 1507.9 2477.5 1507.72 2477.63 1507.6 2477.76 1507.45 2477.88 1507.27 2478.01 1507.08 2478.13 1506.87 2478.25 1506.61 2478.37 1506.36 2478.5 1506.06 2478.63 1505.71 2478.75 1505.36 2478.9 1504.96 2479.06 1504.49ZM2442.51 1503.92 2449.42 1503.92C2450.45 1503.92 2451.32 1504.01 2452.04 1504.17 2452.75 1504.34 2453.34 1504.58 2453.81 1504.9 2454.27 1505.22 2454.6 1505.6 2454.81 1506.04 2455.01 1506.48 2455.12 1506.99 2455.12 1507.56 2455.12 1509.72 2453.76 1511.25 2451.04 1512.14 2451.04 1512.18 2451.04 1512.22 2451.04 1512.24 2451.03 1512.27 2451.03 1512.29 2451.03 1512.31 2451.85 1512.63 2452.47 1513.08 2452.89 1513.65 2453.31 1514.22 2453.52 1514.88 2453.52 1515.63 2453.52 1516.47 2453.37 1517.23 2453.05 1517.89 2452.74 1518.55 2452.26 1519.12 2451.61 1519.58 2450.96 1520.04 2450.12 1520.4 2449.11 1520.65 2448.09 1520.9 2446.86 1521.02 2445.44 1521.02L2439.26 1521.02 2439.4 1520.22C2439.67 1520.17 2439.9 1520.12 2440.07 1520.07 2440.24 1520.01 2440.39 1519.89 2440.53 1519.7 2440.67 1519.51 2440.79 1519.22 2440.91 1518.85 2441.02 1518.47 2441.15 1517.93 2441.3 1517.24L2443.46 1507.63C2443.55 1507.24 2443.62 1506.9 2443.66 1506.6 2443.7 1506.3 2443.73 1506.05 2443.73 1505.86 2443.73 1505.47 2443.63 1505.18 2443.43 1505.02 2443.23 1504.85 2442.86 1504.76 2442.32 1504.75Z" fill-rule="evenodd"/><text fill="#000000" fill-opacity="0" font-family="Arial,Arial_MSFontService,sans-serif" font-size="17.3364" x="2439.26" y="1519.09">洧냣洧녩洧노</text><path d="M2399.33 1548.24C2400.08 1548.24 2400.69 1548.46 2401.13 1548.89 2401.58 1549.32 2401.8 1549.9 2401.8 1550.63 2401.8 1551.37 2401.66 1552.17 2401.37 1553.03L2401.53 1553.1C2402.05 1552.39 2402.56 1551.74 2403.07 1551.15 2403.59 1550.56 2404.12 1550.05 2404.66 1549.62 2405.21 1549.2 2405.78 1548.86 2406.38 1548.61 2406.98 1548.36 2407.61 1548.24 2408.29 1548.24 2409.43 1548.24 2410.31 1548.57 2410.92 1549.23 2411.54 1549.88 2411.85 1550.82 2411.85 1552.03 2411.85 1552.77 2411.71 1553.77 2411.43 1555.03L2407.33 1573.61 2404.37 1573.61 2408.32 1555.67C2408.42 1555.21 2408.51 1554.69 2408.59 1554.12 2408.66 1553.55 2408.7 1553.08 2408.7 1552.72 2408.7 1551.88 2408.55 1551.27 2408.25 1550.91 2407.95 1550.54 2407.49 1550.35 2406.88 1550.35 2406.24 1550.35 2405.5 1550.72 2404.66 1551.45 2403.81 1552.18 2403.03 1553.1 2402.32 1554.23 2401.6 1555.36 2401.15 1556.35 2400.97 1557.2L2399.11 1565.8 2395.98 1565.8 2398.73 1553.66C2398.79 1553.38 2398.85 1553.05 2398.9 1552.66 2398.96 1552.27 2398.98 1551.92 2398.98 1551.62 2398.98 1551.2 2398.91 1550.88 2398.76 1550.65 2398.61 1550.43 2398.36 1550.32 2398.01 1550.32 2397.72 1550.32 2397.38 1550.43 2397 1550.64 2396.61 1550.86 2396.18 1551.24 2395.69 1551.78L2394.68 1550.77C2395.78 1549.75 2396.64 1549.07 2397.26 1548.74 2397.88 1548.41 2398.57 1548.24 2399.33 1548.24Z" fill-rule="evenodd"/><text fill="#000000" fill-opacity="0" font-family="Arial,Arial_MSFontService,sans-serif" font-size="25.3652" x="2394.68" y="1570.44">洧랙</text><path d="M2470.2 1565.13 2468.7 1571.9C2468.91 1571.91 2469.18 1571.92 2469.5 1571.92 2469.82 1571.93 2470.2 1571.94 2470.64 1571.94 2471.59 1571.94 2472.41 1571.86 2473.1 1571.69 2473.79 1571.53 2474.36 1571.28 2474.81 1570.93 2475.26 1570.58 2475.6 1570.13 2475.81 1569.58 2476.03 1569.02 2476.13 1568.36 2476.13 1567.59 2476.13 1567.18 2476.07 1566.83 2475.95 1566.52 2475.83 1566.21 2475.62 1565.95 2475.34 1565.75 2475.05 1565.54 2474.69 1565.39 2474.24 1565.29 2473.8 1565.19 2473.26 1565.13 2472.61 1565.13ZM2491.02 1561.14C2490.5 1561.14 2490.02 1561.25 2489.57 1561.48 2489.12 1561.71 2488.72 1562.02 2488.35 1562.42 2487.98 1562.81 2487.65 1563.27 2487.36 1563.79 2487.08 1564.31 2486.84 1564.86 2486.64 1565.44 2486.44 1566.02 2486.29 1566.61 2486.19 1567.22 2486.09 1567.83 2486.04 1568.42 2486.04 1568.98 2486.04 1569.93 2486.17 1570.64 2486.44 1571.1 2486.71 1571.56 2487.14 1571.79 2487.74 1571.79 2488.04 1571.79 2488.33 1571.74 2488.6 1571.63 2488.88 1571.53 2489.17 1571.36 2489.48 1571.13 2490.25 1570.53 2490.91 1569.79 2491.46 1568.92 2492 1568.05 2492.41 1567.02 2492.68 1565.83 2492.81 1565.29 2492.9 1564.8 2492.97 1564.36 2493.04 1563.92 2493.08 1563.5 2493.08 1563.1 2493.08 1562.4 2492.92 1561.9 2492.59 1561.59 2492.26 1561.29 2491.74 1561.14 2491.02 1561.14ZM2490.79 1559.83C2491.48 1559.83 2492.09 1559.92 2492.62 1560.08 2493.16 1560.24 2493.64 1560.46 2494.08 1560.74L2495.36 1559.83 2496.43 1560.11 2494.44 1568.75C2494.32 1569.24 2494.24 1569.65 2494.2 1569.97 2494.16 1570.29 2494.13 1570.57 2494.13 1570.82 2494.13 1571.15 2494.2 1571.39 2494.34 1571.54 2494.48 1571.69 2494.67 1571.77 2494.93 1571.77 2495.08 1571.77 2495.24 1571.74 2495.39 1571.67 2495.55 1571.61 2495.71 1571.52 2495.89 1571.38 2496.07 1571.25 2496.27 1571.08 2496.49 1570.88 2496.7 1570.67 2496.95 1570.42 2497.22 1570.13 2497.36 1570.28 2497.51 1570.43 2497.65 1570.57 2497.8 1570.72 2497.95 1570.86 2498.09 1571 2497.65 1571.45 2497.25 1571.83 2496.89 1572.15 2496.53 1572.48 2496.18 1572.74 2495.84 1572.95 2495.5 1573.15 2495.17 1573.3 2494.85 1573.39 2494.52 1573.49 2494.18 1573.53 2493.83 1573.53 2493.2 1573.53 2492.71 1573.33 2492.35 1572.92 2492 1572.51 2491.83 1571.95 2491.83 1571.24 2491.83 1570.84 2491.89 1570.47 2492.01 1570.1L2491.83 1570.03C2491.38 1570.65 2490.94 1571.18 2490.52 1571.62 2490.1 1572.06 2489.68 1572.42 2489.27 1572.71 2488.86 1572.99 2488.44 1573.2 2488.02 1573.33 2487.6 1573.47 2487.16 1573.53 2486.7 1573.53 2485.65 1573.53 2484.84 1573.16 2484.27 1572.41 2483.7 1571.65 2483.42 1570.56 2483.42 1569.13 2483.42 1568.28 2483.51 1567.46 2483.69 1566.67 2483.87 1565.88 2484.12 1565.15 2484.45 1564.46 2484.78 1563.77 2485.17 1563.14 2485.63 1562.57 2486.09 1562 2486.59 1561.52 2487.13 1561.11 2487.68 1560.71 2488.26 1560.4 2488.87 1560.17 2489.49 1559.95 2490.13 1559.83 2490.79 1559.83ZM2423.67 1557.59C2423.35 1557.59 2423.05 1557.6 2422.76 1557.61 2422.47 1557.62 2422.18 1557.63 2421.9 1557.65L2420.23 1564.78 2421.81 1564.78C2422.84 1564.8 2423.69 1564.7 2424.37 1564.48 2425.04 1564.26 2425.59 1563.94 2426 1563.54 2426.4 1563.14 2426.69 1562.66 2426.86 1562.12 2427.03 1561.57 2427.11 1560.98 2427.11 1560.34 2427.11 1559.38 2426.83 1558.68 2426.28 1558.25 2425.73 1557.81 2424.86 1557.59 2423.67 1557.59ZM2474.18 1557.57C2473.76 1557.57 2473.36 1557.57 2472.98 1557.59 2472.59 1557.6 2472.23 1557.62 2471.88 1557.66L2470.52 1563.76 2472.56 1563.76C2473.52 1563.76 2474.33 1563.67 2474.99 1563.49 2475.66 1563.31 2476.2 1563.06 2476.61 1562.72 2477.02 1562.39 2477.32 1561.99 2477.51 1561.52 2477.7 1561.05 2477.8 1560.52 2477.8 1559.93 2477.78 1559.55 2477.7 1559.21 2477.57 1558.91 2477.44 1558.61 2477.23 1558.36 2476.95 1558.17 2476.66 1557.97 2476.29 1557.82 2475.84 1557.72 2475.39 1557.62 2474.83 1557.57 2474.18 1557.57ZM2504.4 1556.76 2506.45 1556.76 2505.7 1560.11 2510.19 1560.11 2509.88 1561.57 2505.41 1561.57 2504.07 1567.1C2503.98 1567.47 2503.91 1567.8 2503.85 1568.09 2503.79 1568.39 2503.75 1568.65 2503.71 1568.89 2503.68 1569.13 2503.65 1569.34 2503.64 1569.54 2503.63 1569.73 2503.62 1569.91 2503.62 1570.08 2503.62 1570.61 2503.73 1571.02 2503.95 1571.32 2504.17 1571.62 2504.53 1571.77 2505.03 1571.77 2505.45 1571.77 2505.9 1571.61 2506.38 1571.3 2506.85 1570.99 2507.39 1570.5 2508 1569.83L2508.91 1570.75C2508.46 1571.25 2508.03 1571.68 2507.63 1572.03 2507.22 1572.38 2506.83 1572.67 2506.44 1572.89 2506.05 1573.12 2505.67 1573.28 2505.29 1573.38 2504.92 1573.48 2504.53 1573.53 2504.13 1573.53 2503.09 1573.53 2502.31 1573.29 2501.79 1572.79 2501.28 1572.3 2501.02 1571.58 2501.02 1570.62 2501.02 1570.29 2501.05 1569.94 2501.1 1569.54 2501.14 1569.15 2501.21 1568.77 2501.3 1568.4L2502.87 1561.57 2500.6 1561.57 2500.86 1560.56C2501.39 1560.56 2501.8 1560.51 2502.1 1560.41 2502.39 1560.31 2502.64 1560.17 2502.84 1559.99 2502.97 1559.87 2503.1 1559.72 2503.22 1559.54 2503.35 1559.36 2503.47 1559.14 2503.59 1558.89 2503.72 1558.63 2503.84 1558.33 2503.97 1557.98 2504.1 1557.64 2504.24 1557.23 2504.4 1556.76ZM2455.6 1556.22C2456.51 1556.22 2457.29 1556.33 2457.94 1556.53 2458.59 1556.74 2459.11 1557.02 2459.51 1557.37 2459.92 1557.72 2460.21 1558.14 2460.39 1558.64 2460.57 1559.13 2460.66 1559.66 2460.66 1560.23 2460.66 1560.57 2460.64 1560.89 2460.59 1561.19 2460.54 1561.48 2460.46 1561.77 2460.34 1562.06 2460.22 1562.34 2460.06 1562.63 2459.87 1562.92 2459.68 1563.21 2459.44 1563.52 2459.15 1563.84 2458.93 1564.12 2458.64 1564.45 2458.29 1564.82 2457.94 1565.19 2457.55 1565.58 2457.14 1566 2456.72 1566.43 2456.28 1566.87 2455.82 1567.32 2455.37 1567.78 2454.92 1568.23 2454.49 1568.68 2454.06 1569.13 2453.67 1569.56 2453.31 1569.99 2452.95 1570.41 2452.65 1570.79 2452.42 1571.15L2457.3 1571.15C2457.71 1571.15 2458.04 1571.13 2458.29 1571.1 2458.53 1571.07 2458.74 1571 2458.9 1570.9 2459.06 1570.79 2459.2 1570.63 2459.32 1570.41 2459.43 1570.2 2459.56 1569.9 2459.71 1569.52L2460.94 1569.52C2460.89 1570.15 2460.85 1570.78 2460.81 1571.41 2460.77 1572.04 2460.73 1572.67 2460.69 1573.3L2449.52 1573.3 2449.52 1572.61C2449.73 1572.14 2449.98 1571.67 2450.26 1571.21 2450.54 1570.74 2450.86 1570.28 2451.21 1569.8 2451.56 1569.33 2451.96 1568.84 2452.41 1568.33 2452.86 1567.83 2453.35 1567.3 2453.9 1566.76 2454.72 1565.93 2455.4 1565.22 2455.92 1564.64 2456.43 1564.06 2456.84 1563.53 2457.14 1563.08 2457.44 1562.62 2457.65 1562.2 2457.75 1561.81 2457.86 1561.43 2457.92 1561.01 2457.92 1560.57 2457.92 1560.12 2457.86 1559.71 2457.73 1559.33 2457.6 1558.96 2457.42 1558.64 2457.18 1558.37 2456.94 1558.11 2456.64 1557.9 2456.28 1557.75 2455.91 1557.6 2455.49 1557.53 2455.02 1557.53 2454.2 1557.53 2453.52 1557.75 2452.96 1558.19 2452.41 1558.64 2451.98 1559.28 2451.67 1560.12L2449.94 1560.12 2449.94 1557.55C2451.07 1557.09 2452.1 1556.75 2453.05 1556.54 2453.99 1556.33 2454.84 1556.22 2455.6 1556.22ZM2467.86 1556.2 2474.76 1556.2C2475.79 1556.2 2476.66 1556.28 2477.38 1556.45 2478.1 1556.61 2478.69 1556.86 2479.15 1557.17 2479.61 1557.49 2479.94 1557.87 2480.15 1558.31 2480.36 1558.76 2480.46 1559.26 2480.46 1559.83 2480.46 1562 2479.1 1563.52 2476.39 1564.41 2476.39 1564.45 2476.38 1564.49 2476.38 1564.51 2476.37 1564.54 2476.37 1564.56 2476.37 1564.58 2477.19 1564.91 2477.81 1565.35 2478.23 1565.93 2478.65 1566.5 2478.86 1567.16 2478.86 1567.9 2478.86 1568.75 2478.71 1569.5 2478.4 1570.16 2478.08 1570.83 2477.6 1571.39 2476.95 1571.85 2476.3 1572.31 2475.47 1572.67 2474.45 1572.92 2473.43 1573.17 2472.21 1573.3 2470.78 1573.3L2464.6 1573.3 2464.74 1572.49C2465.02 1572.45 2465.24 1572.4 2465.41 1572.34 2465.58 1572.28 2465.73 1572.16 2465.87 1571.97 2466.01 1571.78 2466.13 1571.5 2466.25 1571.12 2466.36 1570.74 2466.49 1570.21 2466.64 1569.51L2468.8 1559.9C2468.89 1559.51 2468.96 1559.17 2469 1558.87 2469.05 1558.57 2469.07 1558.33 2469.07 1558.13 2469.07 1557.74 2468.97 1557.46 2468.77 1557.29 2468.57 1557.12 2468.2 1557.04 2467.66 1557.03ZM2432.07 1556.2 2437.83 1556.2 2437.64 1557.03C2437.35 1557.05 2437.11 1557.11 2436.91 1557.2 2436.72 1557.29 2436.57 1557.41 2436.46 1557.57 2436.35 1557.74 2436.27 1557.94 2436.23 1558.19 2436.18 1558.44 2436.16 1558.75 2436.16 1559.11 2436.16 1559.22 2436.16 1559.36 2436.17 1559.55 2436.18 1559.74 2436.2 1559.99 2436.21 1560.31 2436.27 1561.19 2436.32 1562.08 2436.38 1563 2436.44 1563.91 2436.49 1564.8 2436.54 1565.66 2436.6 1566.52 2436.64 1567.34 2436.68 1568.12 2436.72 1568.9 2436.74 1569.59 2436.74 1570.18L2436.87 1570.18 2442.2 1561.27C2442.46 1560.84 2442.68 1560.47 2442.84 1560.15 2443.01 1559.83 2443.14 1559.56 2443.24 1559.32 2443.34 1559.08 2443.4 1558.87 2443.44 1558.68 2443.48 1558.49 2443.5 1558.3 2443.5 1558.11 2443.5 1557.45 2443.04 1557.09 2442.11 1557.03L2442.28 1556.2 2448.04 1556.2 2447.88 1557.03C2447.69 1557.05 2447.51 1557.09 2447.35 1557.13 2447.18 1557.18 2447.01 1557.29 2446.81 1557.47 2446.62 1557.65 2446.39 1557.92 2446.13 1558.27 2445.87 1558.63 2445.55 1559.12 2445.15 1559.76L2436.66 1573.55 2434.74 1573.55C2434.54 1571.21 2434.35 1568.89 2434.16 1566.58 2433.97 1564.27 2433.79 1561.94 2433.6 1559.57 2433.57 1559.16 2433.52 1558.8 2433.45 1558.5 2433.39 1558.2 2433.28 1557.95 2433.15 1557.74 2433.01 1557.53 2432.84 1557.36 2432.65 1557.25 2432.45 1557.14 2432.2 1557.06 2431.89 1557.03ZM2417.86 1556.2 2423.81 1556.2C2424.76 1556.2 2425.6 1556.27 2426.34 1556.41 2427.07 1556.56 2427.69 1556.79 2428.2 1557.11 2428.7 1557.43 2429.09 1557.85 2429.35 1558.36 2429.61 1558.88 2429.76 1559.51 2429.77 1560.26 2429.77 1561.23 2429.59 1562.09 2429.23 1562.83 2428.86 1563.58 2428.35 1564.19 2427.69 1564.69 2427.03 1565.18 2426.24 1565.55 2425.32 1565.8 2424.39 1566.05 2423.37 1566.17 2422.26 1566.16 2421.78 1566.16 2421.34 1566.16 2420.95 1566.15 2420.57 1566.14 2420.24 1566.13 2419.98 1566.11 2419.88 1566.57 2419.77 1567.06 2419.65 1567.6 2419.53 1568.14 2419.41 1568.65 2419.31 1569.15 2419.2 1569.65 2419.11 1570.1 2419.04 1570.51 2418.97 1570.92 2418.94 1571.22 2418.94 1571.42 2418.94 1571.6 2418.96 1571.75 2419.01 1571.88 2419.06 1572.01 2419.14 1572.11 2419.25 1572.2 2419.36 1572.29 2419.51 1572.35 2419.71 1572.4 2419.92 1572.44 2420.18 1572.47 2420.49 1572.49L2420.31 1573.3 2414.6 1573.3 2414.74 1572.49C2415.02 1572.45 2415.24 1572.39 2415.42 1572.33 2415.59 1572.26 2415.75 1572.13 2415.88 1571.94 2416.02 1571.75 2416.14 1571.47 2416.25 1571.09 2416.36 1570.72 2416.49 1570.19 2416.64 1569.51L2418.8 1559.9C2418.89 1559.51 2418.96 1559.17 2419 1558.87 2419.05 1558.57 2419.07 1558.33 2419.07 1558.13 2419.07 1557.74 2418.97 1557.46 2418.77 1557.29 2418.57 1557.12 2418.2 1557.04 2417.66 1557.03Z" fill-rule="evenodd"/><text fill="#000000" fill-opacity="0" font-family="Arial,Arial_MSFontService,sans-serif" font-size="17.3496" x="2414.6" y="1571.38">洧녞洧녤2洧냣洧녩洧노</text><path d="M2394.68 1529.28 2454.18 1529.28 2513.68 1529.28 2513.68 1531.28 2454.18 1531.28 2394.68 1531.28Z" fill-rule="evenodd"/><text font-family="Cambria Math,Cambria Math_MSFontService,sans-serif" font-weight="400" font-size="37" transform="translate(2176.68 1641)">洧녞</text><text font-family="Cambria Math,Cambria Math_MSFontService,sans-serif" font-weight="400" font-size="27" transform="translate(2195.65 1648)">洧냣洧녩洧노2洧냢洧냤</text><text font-family="Cambria Math,Cambria Math_MSFontService,sans-serif" font-weight="400" font-size="27" transform="translate(2293.07 1648)">,</text><text font-family="Cambria Math,Cambria Math_MSFontService,sans-serif" font-weight="400" font-size="27" transform="translate(2298.8 1648)">洧녰洧녵</text><text font-family="Cambria Math,Cambria Math_MSFontService,sans-serif" font-weight="400" font-size="37" transform="translate(2337.3 1641)">=</text><text font-family="Cambria Math,Cambria Math_MSFontService,sans-serif" font-weight="400" font-size="37" transform="translate(2374.98 1641)">洧녞</text><text font-family="Cambria Math,Cambria Math_MSFontService,sans-serif" font-weight="400" font-size="27" transform="translate(2393.95 1648)">洧냣洧녩洧노</text><text font-family="Cambria Math,Cambria Math_MSFontService,sans-serif" font-weight="400" font-size="37" transform="translate(2443.15 1641)">.</text><text font-family="Cambria Math,Cambria Math_MSFontService,sans-serif" font-weight="400" font-size="37" transform="translate(2456.72 1641)">洧랙</text><text font-family="Cambria Math,Cambria Math_MSFontService,sans-serif" font-weight="400" font-size="27" transform="translate(2476.2 1648)">洧냣洧녩洧노2洧냢洧냤</text><text font-family="Cambria Math,Cambria Math_MSFontService,sans-serif" font-weight="400" font-size="37" transform="translate(2575.13 1641)"> </text></g></svg>